999
dxfrw 0.5.10
0
SECTION
2
HEADER
9
$ACADVER
1
AC1021
9
$HANDSEED
5
20000
9
$DWGCODEPAGE
3
ANSI_1252
9
$INSBASE
10
0
20
0
30
0
9
$EXTMIN
10
-20.2911376953
20
-9.999610368
30
0
9
$EXTMAX
10
175
20
245
30
0
9
$LIMMIN
10
0
20
0
9
$LIMMAX
10
420
20
297
9
$ORTHOMODE
70
0
9
$LTSCALE
40
1
9
$TEXTSTYLE
7
STANDARD
9
$CLAYER
8
0
9
$DIMASZ
40
2.5
9
$DIMLFAC
40
1
9
$DIMSCALE
40
1
9
$DIMEXO
40
0.625
9
$DIMEXE
40
1.25
9
$DIMTXT
40
2.5
9
$DIMTSZ
40
0
9
$DIMAUNIT
70
0
9
$DIMADEC
70
1
9
$DIMLUNIT
70
2
9
$DIMSTYLE
2
STANDARD
9
$DIMGAP
40
0.625
9
$DIMTIH
70
0
9
$LUNITS
70
2
9
$LUPREC
70
1
9
$AUNITS
70
0
9
$AUPREC
70
1
9
$SPLINESEGS
70
8
9
$GRIDMODE
70
1
9
$SNAPSTYLE
70
0
9
$GRIDUNIT
10
0
20
0
9
$PINSBASE
10
92.3800328262
20
19.7546303714
30
0
9
$PLIMMIN
10
0
20
0
9
$PLIMMAX
10
297
20
210
9
$INSUNITS
70
4
9
$PSVPSCALE
40
0.725491304606
0
ENDSEC
0
SECTION
2
CLASSES
0
ENDSEC
0
SECTION
2
TABLES
0
TABLE
2
VPORT
5
8
330
0
100
AcDbSymbolTable
70
1
0
VPORT
5
31
330
2
100
AcDbSymbolTableRecord
100
AcDbViewportTableRecord
2
*ACTIVE
70
0
10
0
20
0
11
1
21
1
12
96.5625
22
74.6875
13
0
23
0
14
10
24
10
15
10
25
10
16
0
26
0
36
1
17
0
27
0
37
0
40
141.875
41
2.25550660793
42
50
43
0
44
0
50
0
51
0
71
0
72
100
73
1
74
3
75
0
76
1
77
0
78
0
281
0
65
1
110
0
120
0
130
0
111
1
121
0
131
0
112
0
122
1
132
0
79
0
146
0
348
10020
60
7
61
5
292
1
282
1
141
0
142
0
63
250
421
3358443
0
ENDTAB
0
TABLE
2
LTYPE
5
5
330
0
100
AcDbSymbolTable
70
4
0
LTYPE
5
14
330
5
100
AcDbSymbolTableRecord
100
AcDbLinetypeTableRecord
2
ByBlock
70
0
3

72
65
73
0
40
0
0
LTYPE
5
15
330
5
100
AcDbSymbolTableRecord
100
AcDbLinetypeTableRecord
2
ByLayer
70
0
3

72
65
73
0
40
0
0
LTYPE
5
16
330
5
100
AcDbSymbolTableRecord
100
AcDbLinetypeTableRecord
2
Continuous
70
0
3
Solid line
72
65
73
0
40
0
0
LTYPE
5
32
330
5
100
AcDbSymbolTableRecord
100
AcDbLinetypeTableRecord
2
DOT
70
0
3
Dot . . . . . . . . . . . . . . . . . . . . . .
72
65
73
2
40
6.35
49
0
74
0
49
-6.35
74
0
0
LTYPE
5
33
330
5
100
AcDbSymbolTableRecord
100
AcDbLinetypeTableRecord
2
DOT2
70
0
3
Dot (.5x) .....................................
72
65
73
2
40
3.175
49
0
74
0
49
-3.175
74
0
0
LTYPE
5
34
330
5
100
AcDbSymbolTableRecord
100
AcDbLinetypeTableRecord
2
DOTX2
70
0
3
Dot (2x) .  .  .  .  .  .  .  .  .  .  .  .  .
72
65
73
2
40
12.7
49
0
74
0
49
-12.7
74
0
0
LTYPE
5
35
330
5
100
AcDbSymbolTableRecord
100
AcDbLinetypeTableRecord
2
DASHED
70
0
3
Dot . . . . . . . . . . . . . . . . . . . . . .
72
65
73
2
40
19.05
49
12.7
74
0
49
-6.35
74
0
0
LTYPE
5
36
330
5
100
AcDbSymbolTableRecord
100
AcDbLinetypeTableRecord
2
DASHED2
70
0
3
Dashed (.5x) _ _ _ _ _ _ _ _ _ _ _ _ _ _ _ _ _
72
65
73
2
40
9.525
49
6.35
74
0
49
-3.175
74
0
0
LTYPE
5
37
330
5
100
AcDbSymbolTableRecord
100
AcDbLinetypeTableRecord
2
DASHEDX2
70
0
3
Dashed (2x) ____  ____  ____  ____  ____  ___
72
65
73
2
40
38.1
49
25.4
74
0
49
-12.7
74
0
0
LTYPE
5
38
330
5
100
AcDbSymbolTableRecord
100
AcDbLinetypeTableRecord
2
DASHDOT
70
0
3
Dash dot __ . __ . __ . __ . __ . __ . __ . __
72
65
73
4
40
25.4
49
12.7
74
0
49
-6.35
74
0
49
0
74
0
49
-6.35
74
0
0
LTYPE
5
39
330
5
100
AcDbSymbolTableRecord
100
AcDbLinetypeTableRecord
2
DASHDOT2
70
0
3
Dash dot (.5x) _._._._._._._._._._._._._._._.
72
65
73
4
40
12.7
49
6.35
74
0
49
-3.175
74
0
49
0
74
0
49
-3.175
74
0
0
LTYPE
5
3A
330
5
100
AcDbSymbolTableRecord
100
AcDbLinetypeTableRecord
2
DASHDOTX2
70
0
3
Dash dot (2x) ____  .  ____  .  ____  .  ___
72
65
73
4
40
50.8
49
25.4
74
0
49
-12.7
74
0
49
0
74
0
49
-12.7
74
0
0
LTYPE
5
3B
330
5
100
AcDbSymbolTableRecord
100
AcDbLinetypeTableRecord
2
DIVIDE
70
0
3
Divide ____ . . ____ . . ____ . . ____ . . ____
72
65
73
6
40
31.75
49
12.7
74
0
49
-6.35
74
0
49
0
74
0
49
-6.35
74
0
49
0
74
0
49
-6.35
74
0
0
LTYPE
5
3C
330
5
100
AcDbSymbolTableRecord
100
AcDbLinetypeTableRecord
2
DIVIDE2
70
0
3
Divide (.5x) __..__..__..__..__..__..__..__.._
72
65
73
6
40
15.875
49
6.35
74
0
49
-3.175
74
0
49
0
74
0
49
-3.175
74
0
49
0
74
0
49
-3.175
74
0
0
LTYPE
5
3D
330
5
100
AcDbSymbolTableRecord
100
AcDbLinetypeTableRecord
2
DIVIDEX2
70
0
3
Divide (2x) ________  .  .  ________  .  .  _
72
65
73
6
40
63.5
49
25.4
74
0
49
-12.7
74
0
49
0
74
0
49
-12.7
74
0
49
0
74
0
49
-12.7
74
0
0
LTYPE
5
3E
330
5
100
AcDbSymbolTableRecord
100
AcDbLinetypeTableRecord
2
BORDER
70
0
3
Border __ __ . __ __ . __ __ . __ __ . __ __ .
72
65
73
6
40
44.45
49
12.7
74
0
49
-6.35
74
0
49
12.7
74
0
49
-6.35
74
0
49
0
74
0
49
-6.35
74
0
0
LTYPE
5
3F
330
5
100
AcDbSymbolTableRecord
100
AcDbLinetypeTableRecord
2
BORDER2
70
0
3
Border (.5x) __.__.__.__.__.__.__.__.__.__.__.
72
65
73
6
40
22.225
49
6.35
74
0
49
-3.175
74
0
49
6.35
74
0
49
-3.175
74
0
49
0
74
0
49
-3.175
74
0
0
LTYPE
5
40
330
5
100
AcDbSymbolTableRecord
100
AcDbLinetypeTableRecord
2
BORDERX2
70
0
3
Border (2x) ____  ____  .  ____  ____  .  ___
72
65
73
6
40
88.9
49
25.4
74
0
49
-12.7
74
0
49
25.4
74
0
49
-12.7
74
0
49
0
74
0
49
-12.7
74
0
0
LTYPE
5
41
330
5
100
AcDbSymbolTableRecord
100
AcDbLinetypeTableRecord
2
CENTER
70
0
3
Center ____ _ ____ _ ____ _ ____ _ ____ _ ____
72
65
73
4
40
50.8
49
31.75
74
0
49
-6.35
74
0
49
6.35
74
0
49
-6.35
74
0
0
LTYPE
5
42
330
5
100
AcDbSymbolTableRecord
100
AcDbLinetypeTableRecord
2
CENTER2
70
0
3
Center (.5x) ___ _ ___ _ ___ _ ___ _ ___ _ ___
72
65
73
4
40
28.575
49
19.05
74
0
49
-3.175
74
0
49
3.175
74
0
49
-3.175
74
0
0
LTYPE
5
43
330
5
100
AcDbSymbolTableRecord
100
AcDbLinetypeTableRecord
2
CENTERX2
70
0
3
Center (2x) ________  __  ________  __  _____
72
65
73
4
40
101.6
49
63.5
74
0
49
-12.7
74
0
49
12.7
74
0
49
-12.7
74
0
0
ENDTAB
0
TABLE
2
LAYER
5
2
330
0
100
AcDbSymbolTable
70
1
0
LAYER
5
10
330
2
100
AcDbSymbolTableRecord
100
AcDbLayerTableRecord
2
0
70
0
62
7
6
CONTINUOUS
370
0
390
F
0
ENDTAB
0
TABLE
2
STYLE
5
3
330
0
100
AcDbSymbolTable
70
3
0
STYLE
5
44
330
2
100
AcDbSymbolTableRecord
100
AcDbTextStyleTableRecord
2
standard
70
0
40
0
41
1
50
0
71
0
42
1
3
standard
4

0
ENDTAB
0
TABLE
2
VIEW
5
6
330
0
100
AcDbSymbolTable
70
0
0
ENDTAB
0
TABLE
2
UCS
5
7
330
0
100
AcDbSymbolTable
70
0
0
ENDTAB
0
TABLE
2
APPID
5
9
330
0
100
AcDbSymbolTable
70
1
0
APPID
5
12
330
9
100
AcDbSymbolTableRecord
100
AcDbRegAppTableRecord
2
ACAD
70
0
0
ENDTAB
0
TABLE
2
DIMSTYLE
5
A
330
0
100
AcDbSymbolTable
70
1
100
AcDbDimStyleTable
71
1
0
DIMSTYLE
105
45
330
A
100
AcDbSymbolTableRecord
100
AcDbDimStyleTableRecord
2
Standard
70
0
40
1
41
2.5
42
0.625
43
0.38
44
1.25
45
0
46
0
47
0
48
0
140
2.5
141
0.09
142
0
143
25.4
144
1
145
0
146
1
147
0.625
148
0
71
0
72
0
73
0
74
1
75
0
76
0
77
0
78
0
79
0
170
0
171
2
172
0
173
0
174
0
175
0
176
0
177
0
178
0
179
0
271
4
272
4
273
2
274
2
275
0
276
0
277
2
278
46
279
0
280
0
281
0
282
0
283
1
284
0
285
0
286
0
288
0
289
3
340
Standard
341

371
-2
372
-2
0
ENDTAB
0
TABLE
2
BLOCK_RECORD
5
1
330
0
100
AcDbSymbolTable
70
2
0
BLOCK_RECORD
5
1F
330
1
100
AcDbSymbolTableRecord
100
AcDbBlockTableRecord
2
*Model_Space
70
0
280
1
281
0
0
BLOCK_RECORD
5
1E
330
1
100
AcDbSymbolTableRecord
100
AcDbBlockTableRecord
2
*Paper_Space
70
0
280
1
281
0
0
BLOCK_RECORD
5
46
330
1
100
AcDbSymbolTableRecord
100
AcDbBlockTableRecord
2
*D48
70
0
280
1
281
0
0
BLOCK_RECORD
5
49
330
1
100
AcDbSymbolTableRecord
100
AcDbBlockTableRecord
2
*D12
70
0
280
1
281
0
0
BLOCK_RECORD
5
4C
330
1
100
AcDbSymbolTableRecord
100
AcDbBlockTableRecord
2
*D14
70
0
280
1
281
0
0
BLOCK_RECORD
5
4F
330
1
100
AcDbSymbolTableRecord
100
AcDbBlockTableRecord
2
*D16
70
0
280
1
281
0
0
BLOCK_RECORD
5
52
330
1
100
AcDbSymbolTableRecord
100
AcDbBlockTableRecord
2
*D23
70
0
280
1
281
0
0
BLOCK_RECORD
5
55
330
1
100
AcDbSymbolTableRecord
100
AcDbBlockTableRecord
2
*D17
70
0
280
1
281
0
0
BLOCK_RECORD
5
58
330
1
100
AcDbSymbolTableRecord
100
AcDbBlockTableRecord
2
*D30
70
0
280
1
281
0
0
BLOCK_RECORD
5
5B
330
1
100
AcDbSymbolTableRecord
100
AcDbBlockTableRecord
2
*D37
70
0
280
1
281
0
0
BLOCK_RECORD
5
5E
330
1
100
AcDbSymbolTableRecord
100
AcDbBlockTableRecord
2
*D2
70
0
280
1
281
0
0
BLOCK_RECORD
5
61
330
1
100
AcDbSymbolTableRecord
100
AcDbBlockTableRecord
2
*D9
70
0
280
1
281
0
0
BLOCK_RECORD
5
64
330
1
100
AcDbSymbolTableRecord
100
AcDbBlockTableRecord
2
*D24
70
0
280
1
281
0
0
BLOCK_RECORD
5
67
330
1
100
AcDbSymbolTableRecord
100
AcDbBlockTableRecord
2
*D8
70
0
280
1
281
0
0
BLOCK_RECORD
5
6A
330
1
100
AcDbSymbolTableRecord
100
AcDbBlockTableRecord
2
*D1
70
0
280
1
281
0
0
BLOCK_RECORD
5
6D
330
1
100
AcDbSymbolTableRecord
100
AcDbBlockTableRecord
2
*D4
70
0
280
1
281
0
0
BLOCK_RECORD
5
70
330
1
100
AcDbSymbolTableRecord
100
AcDbBlockTableRecord
2
*D32
70
0
280
1
281
0
0
BLOCK_RECORD
5
73
330
1
100
AcDbSymbolTableRecord
100
AcDbBlockTableRecord
2
*D36
70
0
280
1
281
0
0
BLOCK_RECORD
5
76
330
1
100
AcDbSymbolTableRecord
100
AcDbBlockTableRecord
2
*D6
70
0
280
1
281
0
0
BLOCK_RECORD
5
79
330
1
100
AcDbSymbolTableRecord
100
AcDbBlockTableRecord
2
*D18
70
0
280
1
281
0
0
BLOCK_RECORD
5
7C
330
1
100
AcDbSymbolTableRecord
100
AcDbBlockTableRecord
2
*D34
70
0
280
1
281
0
0
BLOCK_RECORD
5
7F
330
1
100
AcDbSymbolTableRecord
100
AcDbBlockTableRecord
2
*D40
70
0
280
1
281
0
0
BLOCK_RECORD
5
82
330
1
100
AcDbSymbolTableRecord
100
AcDbBlockTableRecord
2
*D28
70
0
280
1
281
0
0
BLOCK_RECORD
5
85
330
1
100
AcDbSymbolTableRecord
100
AcDbBlockTableRecord
2
*D46
70
0
280
1
281
0
0
BLOCK_RECORD
5
88
330
1
100
AcDbSymbolTableRecord
100
AcDbBlockTableRecord
2
*D31
70
0
280
1
281
0
0
BLOCK_RECORD
5
8B
330
1
100
AcDbSymbolTableRecord
100
AcDbBlockTableRecord
2
*D27
70
0
280
1
281
0
0
BLOCK_RECORD
5
8E
330
1
100
AcDbSymbolTableRecord
100
AcDbBlockTableRecord
2
*D26
70
0
280
1
281
0
0
BLOCK_RECORD
5
91
330
1
100
AcDbSymbolTableRecord
100
AcDbBlockTableRecord
2
*D35
70
0
280
1
281
0
0
BLOCK_RECORD
5
94
330
1
100
AcDbSymbolTableRecord
100
AcDbBlockTableRecord
2
*D19
70
0
280
1
281
0
0
BLOCK_RECORD
5
97
330
1
100
AcDbSymbolTableRecord
100
AcDbBlockTableRecord
2
*D33
70
0
280
1
281
0
0
BLOCK_RECORD
5
9A
330
1
100
AcDbSymbolTableRecord
100
AcDbBlockTableRecord
2
*D21
70
0
280
1
281
0
0
BLOCK_RECORD
5
9D
330
1
100
AcDbSymbolTableRecord
100
AcDbBlockTableRecord
2
*D13
70
0
280
1
281
0
0
BLOCK_RECORD
5
A0
330
1
100
AcDbSymbolTableRecord
100
AcDbBlockTableRecord
2
*D43
70
0
280
1
281
0
0
BLOCK_RECORD
5
A3
330
1
100
AcDbSymbolTableRecord
100
AcDbBlockTableRecord
2
*D42
70
0
280
1
281
0
0
BLOCK_RECORD
5
A6
330
1
100
AcDbSymbolTableRecord
100
AcDbBlockTableRecord
2
*D38
70
0
280
1
281
0
0
BLOCK_RECORD
5
A9
330
1
100
AcDbSymbolTableRecord
100
AcDbBlockTableRecord
2
*D47
70
0
280
1
281
0
0
BLOCK_RECORD
5
AC
330
1
100
AcDbSymbolTableRecord
100
AcDbBlockTableRecord
2
*D25
70
0
280
1
281
0
0
BLOCK_RECORD
5
AF
330
1
100
AcDbSymbolTableRecord
100
AcDbBlockTableRecord
2
*D41
70
0
280
1
281
0
0
BLOCK_RECORD
5
B2
330
1
100
AcDbSymbolTableRecord
100
AcDbBlockTableRecord
2
*D5
70
0
280
1
281
0
0
BLOCK_RECORD
5
B5
330
1
100
AcDbSymbolTableRecord
100
AcDbBlockTableRecord
2
*D10
70
0
280
1
281
0
0
BLOCK_RECORD
5
B8
330
1
100
AcDbSymbolTableRecord
100
AcDbBlockTableRecord
2
*D22
70
0
280
1
281
0
0
BLOCK_RECORD
5
BB
330
1
100
AcDbSymbolTableRecord
100
AcDbBlockTableRecord
2
*D3
70
0
280
1
281
0
0
BLOCK_RECORD
5
BE
330
1
100
AcDbSymbolTableRecord
100
AcDbBlockTableRecord
2
*D7
70
0
280
1
281
0
0
BLOCK_RECORD
5
C1
330
1
100
AcDbSymbolTableRecord
100
AcDbBlockTableRecord
2
*D20
70
0
280
1
281
0
0
BLOCK_RECORD
5
C4
330
1
100
AcDbSymbolTableRecord
100
AcDbBlockTableRecord
2
*D45
70
0
280
1
281
0
0
BLOCK_RECORD
5
C7
330
1
100
AcDbSymbolTableRecord
100
AcDbBlockTableRecord
2
*D44
70
0
280
1
281
0
0
BLOCK_RECORD
5
CA
330
1
100
AcDbSymbolTableRecord
100
AcDbBlockTableRecord
2
*D11
70
0
280
1
281
0
0
BLOCK_RECORD
5
CD
330
1
100
AcDbSymbolTableRecord
100
AcDbBlockTableRecord
2
*D39
70
0
280
1
281
0
0
BLOCK_RECORD
5
D0
330
1
100
AcDbSymbolTableRecord
100
AcDbBlockTableRecord
2
*D29
70
0
280
1
281
0
0
BLOCK_RECORD
5
D3
330
1
100
AcDbSymbolTableRecord
100
AcDbBlockTableRecord
2
*D15
70
0
280
1
281
0
0
ENDTAB
0
ENDSEC
0
SECTION
2
BLOCKS
0
BLOCK
5
20
330
1F
100
AcDbEntity
8
0
100
AcDbBlockBegin
2
*Model_Space
70
0
10
0
20
0
30
0
3
*Model_Space
1

0
ENDBLK
5
21
330
1F
100
AcDbEntity
8
0
100
AcDbBlockEnd
0
BLOCK
5
1C
330
1B
100
AcDbEntity
8
0
100
AcDbBlockBegin
2
*Paper_Space
70
0
10
0
20
0
30
0
3
*Paper_Space
1

0
ENDBLK
5
1D
330
1F
100
AcDbEntity
8
0
100
AcDbBlockEnd
0
BLOCK
5
47
330
46
100
AcDbEntity
8
0
100
AcDbBlockBegin
2
*D48
70
1
10
0
20
0
3
*D48
1

0
LINE
5
D6
100
AcDbEntity
8
0
6
CONTINUOUS
62
7
370
0
100
AcDbLine
10
75.5
20
53.5
11
0
21
53.5
0
SOLID
5
D7
100
AcDbEntity
8
0
6
CONTINUOUS
62
7
370
0
100
AcDbTrace
10
75.5
20
53.5
30
0
11
73
21
53.0837153422
31
0
12
73
22
53.9162846578
32
0
13
73
23
53.9162846578
33
0
0
SOLID
5
D8
100
AcDbEntity
8
0
6
CONTINUOUS
62
7
370
0
100
AcDbTrace
10
0
20
53.5
30
0
11
2.5
21
53.9162846578
31
0
12
2.5
22
53.0837153422
32
0
13
2.5
23
53.0837153422
33
0
0
MTEXT
5
D9
100
AcDbEntity
8
0
6
CONTINUOUS
62
7
370
0
100
AcDbMText
10
37.75
20
55.375
30
0
40
2.5
41
5.83333333333
71
5
72
1
1
75.5
7
standard
210
0
220
0
230
1
50
360
73
2
44
1
0
LINE
5
DA
100
AcDbEntity
8
0
6
CONTINUOUS
62
7
370
0
100
AcDbLine
10
75.5
20
79.375
11
75.5
21
52.25
0
LINE
5
DB
100
AcDbEntity
8
0
6
CONTINUOUS
62
7
370
0
100
AcDbLine
10
-1.1481063742e-16
20
79.375
11
-2.2962127484e-16
21
52.25
0
ENDBLK
5
48
330
46
100
AcDbEntity
8
0
100
AcDbBlockEnd
0
BLOCK
5
4A
330
49
100
AcDbEntity
8
0
100
AcDbBlockBegin
2
*D12
70
1
10
0
20
0
3
*D12
1

0
LINE
5
DC
100
AcDbEntity
8
0
6
CONTINUOUS
62
7
370
0
100
AcDbLine
10
107.334571679
20
18.5544826282
11
103.665428321
21
11.4455173718
0
SOLID
5
DD
100
AcDbEntity
8
0
6
CONTINUOUS
62
7
370
0
100
AcDbTrace
10
107.334571679
20
18.5544826282
30
0
11
106.557883526
21
16.1420049747
31
0
12
105.818045233
22
16.5238569964
32
0
13
105.818045233
23
16.5238569964
33
0
0
SOLID
5
DE
100
AcDbEntity
8
0
6
CONTINUOUS
62
7
370
0
100
AcDbTrace
10
103.665428321
20
11.4455173718
30
0
11
104.442116474
21
13.8579950253
31
0
12
105.181954767
22
13.4761430036
32
0
13
105.181954767
23
13.4761430036
33
0
0
MTEXT
5
DF
100
AcDbEntity
8
0
6
CONTINUOUS
62
7
370
0
100
AcDbMText
10
103.833836268
20
15.8599554746
30
0
40
2.5
41
3.61111111111
71
5
72
1
1
%%C8
7
standard
210
0
220
0
230
1
50
62.7004277896
73
2
44
1
0
ENDBLK
5
4B
330
49
100
AcDbEntity
8
0
100
AcDbBlockEnd
0
BLOCK
5
4D
330
4C
100
AcDbEntity
8
0
100
AcDbBlockBegin
2
*D14
70
1
10
0
20
0
3
*D14
1

0
LINE
5
E0
100
AcDbEntity
8
0
6
CONTINUOUS
62
7
370
0
100
AcDbLine
10
135
20
21.75
11
170
21
21.75
0
SOLID
5
E1
100
AcDbEntity
8
0
6
CONTINUOUS
62
7
370
0
100
AcDbTrace
10
135
20
21.75
30
0
11
137.5
21
22.1662846578
31
0
12
137.5
22
21.3337153422
32
0
13
137.5
23
21.3337153422
33
0
0
SOLID
5
E2
100
AcDbEntity
8
0
6
CONTINUOUS
62
7
370
0
100
AcDbTrace
10
170
20
21.75
30
0
11
167.5
21
21.3337153422
31
0
12
167.5
22
22.1662846578
32
0
13
167.5
23
22.1662846578
33
0
0
MTEXT
5
E3
100
AcDbEntity
8
0
6
CONTINUOUS
62
7
370
0
100
AcDbMText
10
152.5
20
23.625
30
0
40
2.5
41
3.05555555556
71
5
72
1
1
35
7
standard
210
0
220
0
230
1
50
0
73
2
44
1
0
LINE
5
E4
100
AcDbEntity
8
0
6
CONTINUOUS
62
7
370
0
100
AcDbLine
10
135
20
15.625
11
135
21
23
0
LINE
5
E5
100
AcDbEntity
8
0
6
CONTINUOUS
62
7
370
0
100
AcDbLine
10
170
20
15.625
11
170
21
23
0
ENDBLK
5
4E
330
4C
100
AcDbEntity
8
0
100
AcDbBlockEnd
0
BLOCK
5
50
330
4F
100
AcDbEntity
8
0
100
AcDbBlockBegin
2
*D16
70
1
10
0
20
0
3
*D16
1

0
LINE
5
E6
100
AcDbEntity
8
0
6
CONTINUOUS
62
7
370
0
100
AcDbLine
10
111.035912771
20
59.5500879336
11
39.9640872289
21
100.449912066
0
SOLID
5
E7
100
AcDbEntity
8
0
6
CONTINUOUS
62
7
370
0
100
AcDbTrace
10
111.035912771
20
59.5500879336
30
0
11
108.66145505
21
60.4362275648
31
0
12
109.076722593
22
61.1578400178
32
0
13
109.076722593
23
61.1578400178
33
0
0
SOLID
5
E8
100
AcDbEntity
8
0
6
CONTINUOUS
62
7
370
0
100
AcDbTrace
10
39.9640872289
20
100.449912066
30
0
11
42.3385449502
21
99.5637724348
31
0
12
41.9232774065
22
98.8421599818
32
0
13
41.9232774065
23
98.8421599818
33
0
0
MTEXT
5
E9
100
AcDbEntity
8
0
6
CONTINUOUS
62
7
370
0
100
AcDbMText
10
76.4352093933
20
81.6251179621
30
0
40
2.5
41
5.55555555556
71
5
72
1
1
%%C82
7
standard
210
0
220
0
230
1
50
330.080791312
73
2
44
1
0
ENDBLK
5
51
330
4F
100
AcDbEntity
8
0
100
AcDbBlockEnd
0
BLOCK
5
53
330
52
100
AcDbEntity
8
0
100
AcDbBlockBegin
2
*D23
70
1
10
0
20
0
3
*D23
1

0
LINE
5
EA
100
AcDbEntity
8
0
6
CONTINUOUS
62
7
370
0
100
AcDbLine
10
-17.1661376953
20
0
11
-17.1661376953
21
150
0
SOLID
5
EB
100
AcDbEntity
8
0
6
CONTINUOUS
62
7
370
0
100
AcDbTrace
10
-17.1661376953
20
0
30
0
11
-17.5824223531
21
2.5
31
0
12
-16.7498530375
22
2.5
32
0
13
-16.7498530375
23
2.5
33
0
0
SOLID
5
EC
100
AcDbEntity
8
0
6
CONTINUOUS
62
7
370
0
100
AcDbTrace
10
-17.1661376953
20
150
30
0
11
-16.7498530375
21
147.5
31
0
12
-17.5824223531
22
147.5
32
0
13
-17.5824223531
23
147.5
33
0
0
MTEXT
5
ED
100
AcDbEntity
8
0
6
CONTINUOUS
62
7
370
0
100
AcDbMText
10
-19.0411376953
20
75
30
0
40
2.5
41
4.44444444444
71
5
72
1
1
150
7
standard
210
0
220
0
230
1
50
90
73
2
44
1
0
LINE
5
EE
100
AcDbEntity
8
0
6
CONTINUOUS
62
7
370
0
100
AcDbLine
10
-0.625
20
7.65404249467e-17
11
-18.4161376953
21
1.53080849893e-16
0
LINE
5
EF
100
AcDbEntity
8
0
6
CONTINUOUS
62
7
370
0
100
AcDbLine
10
-0.625
20
150
11
-18.4161376953
21
150
0
ENDBLK
5
54
330
52
100
AcDbEntity
8
0
100
AcDbBlockEnd
0
BLOCK
5
56
330
55
100
AcDbEntity
8
0
100
AcDbBlockBegin
2
*D17
70
1
10
0
20
0
3
*D17
1

0
LINE
5
F0
100
AcDbEntity
8
0
6
CONTINUOUS
62
7
370
0
100
AcDbLine
10
139.16462934
20
108.396724664
11
131.83537066
21
111.603275336
0
SOLID
5
F1
100
AcDbEntity
8
0
6
CONTINUOUS
62
7
370
0
100
AcDbTrace
10
139.16462934
20
108.396724664
30
0
11
136.707381272
21
109.017389506
31
0
12
137.041090734
22
109.780153992
32
0
13
137.041090734
23
109.780153992
33
0
0
SOLID
5
F2
100
AcDbEntity
8
0
6
CONTINUOUS
62
7
370
0
100
AcDbTrace
10
131.83537066
20
111.603275336
30
0
11
134.292618728
21
110.982610494
31
0
12
133.958909266
22
110.219846008
32
0
13
133.958909266
23
110.219846008
33
0
0
MTEXT
5
F3
100
AcDbEntity
8
0
6
CONTINUOUS
62
7
370
0
100
AcDbMText
10
136.251535314
20
111.717795003
30
0
40
2.5
41
3.61111111111
71
5
72
1
1
%%C8
7
standard
210
0
220
0
230
1
50
336.370622273
73
2
44
1
0
ENDBLK
5
57
330
55
100
AcDbEntity
8
0
100
AcDbBlockEnd
0
BLOCK
5
59
330
58
100
AcDbEntity
8
0
100
AcDbBlockBegin
2
*D30
70
1
10
0
20
0
3
*D30
1

0
LINE
5
F4
100
AcDbEntity
8
0
6
CONTINUOUS
62
7
370
0
100
AcDbLine
10
123.392
20
110
11
123.392
21
90
0
SOLID
5
F5
100
AcDbEntity
8
0
6
CONTINUOUS
62
7
370
0
100
AcDbTrace
10
123.392
20
110
30
0
11
123.808284658
21
107.5
31
0
12
122.975715342
22
107.5
32
0
13
122.975715342
23
107.5
33
0
0
SOLID
5
F6
100
AcDbEntity
8
0
6
CONTINUOUS
62
7
370
0
100
AcDbTrace
10
123.392
20
90
30
0
11
122.975715342
21
92.5
31
0
12
123.808284658
22
92.5
32
0
13
123.808284658
23
92.5
33
0
0
MTEXT
5
F7
100
AcDbEntity
8
0
6
CONTINUOUS
62
7
370
0
100
AcDbMText
10
121.517
20
100
30
0
40
2.5
41
3.05555555556
71
5
72
1
1
20
7
standard
210
0
220
0
230
1
50
90
73
2
44
1
0
LINE
5
F8
100
AcDbEntity
8
0
6
CONTINUOUS
62
7
370
0
100
AcDbLine
10
134.375
20
110
11
122.142
21
110
0
LINE
5
F9
100
AcDbEntity
8
0
6
CONTINUOUS
62
7
370
0
100
AcDbLine
10
134.375
20
90
11
122.142
21
90
0
ENDBLK
5
5A
330
58
100
AcDbEntity
8
0
100
AcDbBlockEnd
0
BLOCK
5
5C
330
5B
100
AcDbEntity
8
0
100
AcDbBlockBegin
2
*D37
70
1
10
0
20
0
3
*D37
1

0
LINE
5
FA
100
AcDbEntity
8
0
6
CONTINUOUS
62
7
370
0
100
AcDbLine
10
104.760140267
20
211.153719982
11
115.239859733
21
218.846280018
0
SOLID
5
FB
100
AcDbEntity
8
0
6
CONTINUOUS
62
7
370
0
100
AcDbTrace
10
108.7908016
20
214.112396919
30
0
11
107.021801297
21
212.297477956
31
0
12
106.52914057
22
212.968638945
32
0
13
106.52914057
23
212.968638945
33
0
0
SOLID
5
FC
100
AcDbEntity
8
0
6
CONTINUOUS
62
7
370
0
100
AcDbTrace
10
111.2091984
20
215.887603081
30
0
11
112.978198703
21
217.702522044
31
0
12
113.47085943
22
217.031361055
32
0
13
113.47085943
23
217.031361055
33
0
0
MTEXT
5
FD
100
AcDbEntity
8
0
6
CONTINUOUS
62
7
370
0
100
AcDbMText
10
112.059043808
20
218.837346814
30
0
40
2.5
41
3.61111111111
71
5
72
1
1
%%C3
7
standard
210
0
220
0
230
1
50
36.2802534983
73
2
44
1
0
ENDBLK
5
5D
330
5B
100
AcDbEntity
8
0
100
AcDbBlockEnd
0
BLOCK
5
5F
330
5E
100
AcDbEntity
8
0
100
AcDbBlockBegin
2
*D2
70
1
10
0
20
0
3
*D2
1

0
LINE
5
FE
100
AcDbEntity
8
0
6
CONTINUOUS
62
7
370
0
100
AcDbLine
10
-5
20
4.7104
11
10
21
4.7104
0
SOLID
5
FF
100
AcDbEntity
8
0
6
CONTINUOUS
62
7
370
0
100
AcDbTrace
10
0
20
4.7104
30
0
11
-2.5
21
4.29411534223
31
0
12
-2.5
22
5.12668465777
32
0
13
-2.5
23
5.12668465777
33
0
0
SOLID
5
100
100
AcDbEntity
8
0
6
CONTINUOUS
62
7
370
0
100
AcDbTrace
10
5
20
4.7104
30
0
11
7.5
21
5.12668465777
31
0
12
7.5
22
4.29411534223
32
0
13
7.5
23
4.29411534223
33
0
0
MTEXT
5
101
100
AcDbEntity
8
0
6
CONTINUOUS
62
7
370
0
100
AcDbMText
10
2.5
20
6.5854
30
0
40
2.5
41
1.11111111111
71
5
72
1
1
5
7
standard
210
0
220
0
230
1
50
0
73
2
44
1
0
LINE
5
102
100
AcDbEntity
8
0
6
CONTINUOUS
62
7
370
0
100
AcDbLine
10
3.82702124734e-17
20
0.625
11
7.65404249467e-17
21
5.9604
0
LINE
5
103
100
AcDbEntity
8
0
6
CONTINUOUS
62
7
370
0
100
AcDbLine
10
5
20
0.625
11
5
21
5.9604
0
ENDBLK
5
60
330
5E
100
AcDbEntity
8
0
100
AcDbBlockEnd
0
BLOCK
5
62
330
61
100
AcDbEntity
8
0
100
AcDbBlockBegin
2
*D9
70
1
10
0
20
0
3
*D9
1

0
LINE
5
104
100
AcDbEntity
8
0
6
CONTINUOUS
62
7
370
0
100
AcDbLine
10
78.4809652541
20
12.3328205621
11
72.5190347459
21
17.6671794379
0
SOLID
5
105
100
AcDbEntity
8
0
6
CONTINUOUS
62
7
370
0
100
AcDbTrace
10
78.4809652541
20
12.3328205621
30
0
11
76.3402855004
21
13.6895751856
31
0
12
76.8954384402
22
14.3100402359
32
0
13
76.8954384402
23
14.3100402359
33
0
0
SOLID
5
106
100
AcDbEntity
8
0
6
CONTINUOUS
62
7
370
0
100
AcDbTrace
10
72.5190347459
20
17.6671794379
30
0
11
74.6597144996
21
16.3104248144
31
0
12
74.1045615598
22
15.6899597641
32
0
13
74.1045615598
23
15.6899597641
33
0
0
MTEXT
5
107
100
AcDbEntity
8
0
6
CONTINUOUS
62
7
370
0
100
AcDbMText
10
76.7502403615
20
16.3973274629
30
0
40
2.5
41
3.61111111111
71
5
72
1
1
%%C8
7
standard
210
0
220
0
230
1
50
318.17983012
73
2
44
1
0
ENDBLK
5
63
330
61
100
AcDbEntity
8
0
100
AcDbBlockEnd
0
BLOCK
5
65
330
64
100
AcDbEntity
8
0
100
AcDbBlockBegin
2
*D24
70
1
10
0
20
0
3
*D24
1

0
LINE
5
108
100
AcDbEntity
8
0
6
CONTINUOUS
62
7
370
0
100
AcDbLine
10
-17.12
20
150
11
-17.12
21
240
0
SOLID
5
109
100
AcDbEntity
8
0
6
CONTINUOUS
62
7
370
0
100
AcDbTrace
10
-17.12
20
150
30
0
11
-17.5362846578
21
152.5
31
0
12
-16.7037153422
22
152.5
32
0
13
-16.7037153422
23
152.5
33
0
0
SOLID
5
10A
100
AcDbEntity
8
0
6
CONTINUOUS
62
7
370
0
100
AcDbTrace
10
-17.12
20
240
30
0
11
-16.7037153422
21
237.5
31
0
12
-17.5362846578
22
237.5
32
0
13
-17.5362846578
23
237.5
33
0
0
MTEXT
5
10B
100
AcDbEntity
8
0
6
CONTINUOUS
62
7
370
0
100
AcDbMText
10
-18.995
20
195
30
0
40
2.5
41
3.05555555556
71
5
72
1
1
90
7
standard
210
0
220
0
230
1
50
90
73
2
44
1
0
LINE
5
10C
100
AcDbEntity
8
0
6
CONTINUOUS
62
7
370
0
100
AcDbLine
10
-0.625
20
150
11
-18.37
21
150
0
LINE
5
10D
100
AcDbEntity
8
0
6
CONTINUOUS
62
7
370
0
100
AcDbLine
10
-0.625
20
240
11
-18.37
21
240
0
ENDBLK
5
66
330
64
100
AcDbEntity
8
0
100
AcDbBlockEnd
0
BLOCK
5
68
330
67
100
AcDbEntity
8
0
100
AcDbBlockBegin
2
*D8
70
1
10
0
20
0
3
*D8
1

0
LINE
5
10E
100
AcDbEntity
8
0
6
CONTINUOUS
62
7
370
0
100
AcDbLine
10
0
20
37
11
20
21
37
0
SOLID
5
10F
100
AcDbEntity
8
0
6
CONTINUOUS
62
7
370
0
100
AcDbTrace
10
0
20
37
30
0
11
2.5
21
37.4162846578
31
0
12
2.5
22
36.5837153422
32
0
13
2.5
23
36.5837153422
33
0
0
SOLID
5
110
100
AcDbEntity
8
0
6
CONTINUOUS
62
7
370
0
100
AcDbTrace
10
20
20
37
30
0
11
17.5
21
36.5837153422
31
0
12
17.5
22
37.4162846578
32
0
13
17.5
23
37.4162846578
33
0
0
MTEXT
5
111
100
AcDbEntity
8
0
6
CONTINUOUS
62
7
370
0
100
AcDbMText
10
10
20
38.875
30
0
40
2.5
41
3.05555555556
71
5
72
1
1
20
7
standard
210
0
220
0
230
1
50
0
73
2
44
1
0
LINE
5
112
100
AcDbEntity
8
0
6
CONTINUOUS
62
7
370
0
100
AcDbLine
10
3.82702124734e-17
20
30.625
11
7.65404249467e-17
21
38.25
0
LINE
5
113
100
AcDbEntity
8
0
6
CONTINUOUS
62
7
370
0
100
AcDbLine
10
20
20
30.625
11
20
21
38.25
0
ENDBLK
5
69
330
67
100
AcDbEntity
8
0
100
AcDbBlockEnd
0
BLOCK
5
6B
330
6A
100
AcDbEntity
8
0
100
AcDbBlockBegin
2
*D1
70
1
10
0
20
0
3
*D1
1

0
LINE
5
114
100
AcDbEntity
8
0
6
CONTINUOUS
62
7
370
0
100
AcDbLine
10
10.871635968
20
5
11
10.871635968
21
-9.999610368
0
SOLID
5
115
100
AcDbEntity
8
0
6
CONTINUOUS
62
7
370
0
100
AcDbTrace
10
10.871635968
20
-8.881784197e-16
30
0
11
10.4553513102
21
2.5
31
0
12
11.2879206258
22
2.5
32
0
13
11.2879206258
23
2.5
33
0
0
SOLID
5
116
100
AcDbEntity
8
0
6
CONTINUOUS
62
7
370
0
100
AcDbTrace
10
10.871635968
20
-4.999610368
30
0
11
11.2879206258
21
-7.499610368
31
0
12
10.4553513102
22
-7.499610368
32
0
13
10.4553513102
23
-7.499610368
33
0
0
MTEXT
5
117
100
AcDbEntity
8
0
6
CONTINUOUS
62
7
370
0
100
AcDbMText
10
8.996635968
20
-2.499805184
30
0
40
2.5
41
1.11111111111
71
5
72
1
1
5
7
standard
210
0
220
0
230
1
50
90
73
2
44
1
0
LINE
5
118
100
AcDbEntity
8
0
6
CONTINUOUS
62
7
370
0
100
AcDbLine
10
5.557501504
20
0
11
12.121635968
21
-8.881784197e-16
0
LINE
5
119
100
AcDbEntity
8
0
6
CONTINUOUS
62
7
370
0
100
AcDbLine
10
5.557501504
20
-4.999610368
11
12.121635968
21
-4.999610368
0
ENDBLK
5
6C
330
6A
100
AcDbEntity
8
0
100
AcDbBlockEnd
0
BLOCK
5
6E
330
6D
100
AcDbEntity
8
0
100
AcDbBlockBegin
2
*D4
70
1
10
0
20
0
3
*D4
1

0
LINE
5
11A
100
AcDbEntity
8
0
6
CONTINUOUS
62
7
370
0
100
AcDbLine
10
-5
20
124.928
11
10
21
124.928
0
SOLID
5
11B
100
AcDbEntity
8
0
6
CONTINUOUS
62
7
370
0
100
AcDbTrace
10
0
20
124.928
30
0
11
-2.5
21
124.511715342
31
0
12
-2.5
22
125.344284658
32
0
13
-2.5
23
125.344284658
33
0
0
SOLID
5
11C
100
AcDbEntity
8
0
6
CONTINUOUS
62
7
370
0
100
AcDbTrace
10
5
20
124.928
30
0
11
7.5
21
125.344284658
31
0
12
7.5
22
124.511715342
32
0
13
7.5
23
124.511715342
33
0
0
MTEXT
5
11D
100
AcDbEntity
8
0
6
CONTINUOUS
62
7
370
0
100
AcDbMText
10
2.5
20
126.803
30
0
40
2.5
41
1.11111111111
71
5
72
1
1
5
7
standard
210
0
220
0
230
1
50
0
73
2
44
1
0
LINE
5
11E
100
AcDbEntity
8
0
6
CONTINUOUS
62
7
370
0
100
AcDbLine
10
-1.1481063742e-16
20
129.375
11
-2.2962127484e-16
21
123.678
0
LINE
5
11F
100
AcDbEntity
8
0
6
CONTINUOUS
62
7
370
0
100
AcDbLine
10
5
20
129.375
11
5
21
123.678
0
ENDBLK
5
6F
330
6D
100
AcDbEntity
8
0
100
AcDbBlockEnd
0
BLOCK
5
71
330
70
100
AcDbEntity
8
0
100
AcDbBlockBegin
2
*D32
70
1
10
0
20
0
3
*D32
1

0
LINE
5
120
100
AcDbEntity
8
0
6
CONTINUOUS
62
7
370
0
100
AcDbLine
10
169.571635908
20
183.88589052
11
160.428364092
21
176.11410948
0
SOLID
5
121
100
AcDbEntity
8
0
6
CONTINUOUS
62
7
370
0
100
AcDbTrace
10
165.761939318
20
180.64764842
30
0
11
167.397181512
21
182.583953118
31
0
12
167.936393714
22
181.949585822
32
0
13
167.936393714
23
181.949585822
33
0
0
SOLID
5
122
100
AcDbEntity
8
0
6
CONTINUOUS
62
7
370
0
100
AcDbTrace
10
164.238060682
20
179.35235158
30
0
11
162.602818488
21
177.416046882
31
0
12
162.063606286
22
178.050414178
32
0
13
162.063606286
23
178.050414178
33
0
0
MTEXT
5
123
100
AcDbEntity
8
0
6
CONTINUOUS
62
7
370
0
100
AcDbMText
10
166.399534372
20
183.650430106
30
0
40
2.5
41
3.61111111111
71
5
72
1
1
%%C2
7
standard
210
0
220
0
230
1
50
40.36453656
73
2
44
1
0
ENDBLK
5
72
330
70
100
AcDbEntity
8
0
100
AcDbBlockEnd
0
BLOCK
5
74
330
73
100
AcDbEntity
8
0
100
AcDbBlockBegin
2
*D36
70
1
10
0
20
0
3
*D36
1

0
LINE
5
124
100
AcDbEntity
8
0
6
CONTINUOUS
62
7
370
0
100
AcDbLine
10
80
20
211.2
11
90
21
211.2
0
SOLID
5
125
100
AcDbEntity
8
0
6
CONTINUOUS
62
7
370
0
100
AcDbTrace
10
80
20
211.2
30
0
11
82.5
21
211.616284658
31
0
12
82.5
22
210.783715342
32
0
13
82.5
23
210.783715342
33
0
0
SOLID
5
126
100
AcDbEntity
8
0
6
CONTINUOUS
62
7
370
0
100
AcDbTrace
10
90
20
211.2
30
0
11
87.5
21
210.783715342
31
0
12
87.5
22
211.616284658
32
0
13
87.5
23
211.616284658
33
0
0
MTEXT
5
127
100
AcDbEntity
8
0
6
CONTINUOUS
62
7
370
0
100
AcDbMText
10
85
20
213.075
30
0
40
2.5
41
2.5
71
5
72
1
1
10
7
standard
210
0
220
0
230
1
50
0
73
2
44
1
0
LINE
5
128
100
AcDbEntity
8
0
6
CONTINUOUS
62
7
370
0
100
AcDbLine
10
80
20
214.375
11
80
21
209.95
0
LINE
5
129
100
AcDbEntity
8
0
6
CONTINUOUS
62
7
370
0
100
AcDbLine
10
90
20
214.375
11
90
21
209.95
0
ENDBLK
5
75
330
73
100
AcDbEntity
8
0
100
AcDbBlockEnd
0
BLOCK
5
77
330
76
100
AcDbEntity
8
0
100
AcDbBlockBegin
2
*D6
70
1
10
0
20
0
3
*D6
1

0
LINE
5
12A
100
AcDbEntity
8
0
6
CONTINUOUS
62
7
370
0
100
AcDbLine
10
25
20
30
11
25
21
120
0
SOLID
5
12B
100
AcDbEntity
8
0
6
CONTINUOUS
62
7
370
0
100
AcDbTrace
10
25
20
30
30
0
11
24.5837153422
21
32.5
31
0
12
25.4162846578
22
32.5
32
0
13
25.4162846578
23
32.5
33
0
0
SOLID
5
12C
100
AcDbEntity
8
0
6
CONTINUOUS
62
7
370
0
100
AcDbTrace
10
25
20
120
30
0
11
25.4162846578
21
117.5
31
0
12
24.5837153422
22
117.5
32
0
13
24.5837153422
23
117.5
33
0
0
MTEXT
5
12D
100
AcDbEntity
8
0
6
CONTINUOUS
62
7
370
0
100
AcDbMText
10
23.125
20
75
30
0
40
2.5
41
3.05555555556
71
5
72
1
1
90
7
standard
210
0
220
0
230
1
50
90
73
2
44
1
0
LINE
5
12E
100
AcDbEntity
8
0
6
CONTINUOUS
62
7
370
0
100
AcDbLine
10
20.625
20
30
11
26.25
21
30
0
LINE
5
12F
100
AcDbEntity
8
0
6
CONTINUOUS
62
7
370
0
100
AcDbLine
10
20.625
20
120
11
26.25
21
120
0
ENDBLK
5
78
330
76
100
AcDbEntity
8
0
100
AcDbBlockEnd
0
BLOCK
5
7A
330
79
100
AcDbEntity
8
0
100
AcDbBlockBegin
2
*D18
70
1
10
0
20
0
3
*D18
1

0
LINE
5
130
100
AcDbEntity
8
0
6
CONTINUOUS
62
7
370
0
100
AcDbLine
10
138.754933885
20
47.6750472251
11
132.245066115
21
52.3249527749
0
SOLID
5
131
100
AcDbEntity
8
0
6
CONTINUOUS
62
7
370
0
100
AcDbTrace
10
138.754933885
20
47.6750472251
30
0
11
136.478639664
21
48.7893979498
31
0
12
136.96256075
22
49.4668874689
32
0
13
136.96256075
23
49.4668874689
33
0
0
SOLID
5
132
100
AcDbEntity
8
0
6
CONTINUOUS
62
7
370
0
100
AcDbTrace
10
132.245066115
20
52.3249527749
30
0
11
134.521360336
21
51.2106020502
31
0
12
134.03743925
22
50.5331125311
32
0
13
134.03743925
23
50.5331125311
33
0
0
MTEXT
5
133
100
AcDbEntity
8
0
6
CONTINUOUS
62
7
370
0
100
AcDbMText
10
136.589821613
20
51.5257502585
30
0
40
2.5
41
1.11111111111
71
5
72
1
1
8
7
standard
210
0
220
0
230
1
50
324.462322209
73
2
44
1
0
ENDBLK
5
7B
330
79
100
AcDbEntity
8
0
100
AcDbBlockEnd
0
BLOCK
5
7D
330
7C
100
AcDbEntity
8
0
100
AcDbBlockBegin
2
*D34
70
1
10
0
20
0
3
*D34
1

0
LINE
5
134
100
AcDbEntity
8
0
6
CONTINUOUS
62
7
370
0
100
AcDbLine
10
160
20
228.64
11
175
21
228.64
0
SOLID
5
135
100
AcDbEntity
8
0
6
CONTINUOUS
62
7
370
0
100
AcDbTrace
10
165
20
228.64
30
0
11
162.5
21
228.223715342
31
0
12
162.5
22
229.056284658
32
0
13
162.5
23
229.056284658
33
0
0
SOLID
5
136
100
AcDbEntity
8
0
6
CONTINUOUS
62
7
370
0
100
AcDbTrace
10
170
20
228.64
30
0
11
172.5
21
229.056284658
31
0
12
172.5
22
228.223715342
32
0
13
172.5
23
228.223715342
33
0
0
MTEXT
5
137
100
AcDbEntity
8
0
6
CONTINUOUS
62
7
370
0
100
AcDbMText
10
167.5
20
230.515
30
0
40
2.5
41
1.11111111111
71
5
72
1
1
5
7
standard
210
0
220
0
230
1
50
0
73
2
44
1
0
LINE
5
138
100
AcDbEntity
8
0
6
CONTINUOUS
62
7
370
0
100
AcDbLine
10
165
20
234.375
11
165
21
227.39
0
LINE
5
139
100
AcDbEntity
8
0
6
CONTINUOUS
62
7
370
0
100
AcDbLine
10
170
20
234.375
11
170
21
227.39
0
ENDBLK
5
7E
330
7C
100
AcDbEntity
8
0
100
AcDbBlockEnd
0
BLOCK
5
80
330
7F
100
AcDbEntity
8
0
100
AcDbBlockBegin
2
*D40
70
1
10
0
20
0
3
*D40
1

0
LINE
5
13A
100
AcDbEntity
8
0
6
CONTINUOUS
62
7
370
0
100
AcDbLine
10
80
20
211.2
11
60
21
211.2
0
SOLID
5
13B
100
AcDbEntity
8
0
6
CONTINUOUS
62
7
370
0
100
AcDbTrace
10
80
20
211.2
30
0
11
77.5
21
210.783715342
31
0
12
77.5
22
211.616284658
32
0
13
77.5
23
211.616284658
33
0
0
SOLID
5
13C
100
AcDbEntity
8
0
6
CONTINUOUS
62
7
370
0
100
AcDbTrace
10
60
20
211.2
30
0
11
62.5
21
211.616284658
31
0
12
62.5
22
210.783715342
32
0
13
62.5
23
210.783715342
33
0
0
MTEXT
5
13D
100
AcDbEntity
8
0
6
CONTINUOUS
62
7
370
0
100
AcDbMText
10
70
20
213.075
30
0
40
2.5
41
3.05555555556
71
5
72
1
1
20
7
standard
210
0
220
0
230
1
50
360
73
2
44
1
0
LINE
5
13E
100
AcDbEntity
8
0
6
CONTINUOUS
62
7
370
0
100
AcDbLine
10
80
20
214.375
11
80
21
209.95
0
LINE
5
13F
100
AcDbEntity
8
0
6
CONTINUOUS
62
7
370
0
100
AcDbLine
10
60
20
214.375
11
60
21
209.95
0
ENDBLK
5
81
330
7F
100
AcDbEntity
8
0
100
AcDbBlockEnd
0
BLOCK
5
83
330
82
100
AcDbEntity
8
0
100
AcDbBlockBegin
2
*D28
70
1
10
0
20
0
3
*D28
1

0
LINE
5
140
100
AcDbEntity
8
0
6
CONTINUOUS
62
7
370
0
100
AcDbLine
10
135
20
125.390625
11
170
21
125.390625
0
SOLID
5
141
100
AcDbEntity
8
0
6
CONTINUOUS
62
7
370
0
100
AcDbTrace
10
135
20
125.390625
30
0
11
137.5
21
125.806909658
31
0
12
137.5
22
124.974340342
32
0
13
137.5
23
124.974340342
33
0
0
SOLID
5
142
100
AcDbEntity
8
0
6
CONTINUOUS
62
7
370
0
100
AcDbTrace
10
170
20
125.390625
30
0
11
167.5
21
124.974340342
31
0
12
167.5
22
125.806909658
32
0
13
167.5
23
125.806909658
33
0
0
MTEXT
5
143
100
AcDbEntity
8
0
6
CONTINUOUS
62
7
370
0
100
AcDbMText
10
152.5
20
127.265625
30
0
40
2.5
41
3.05555555556
71
5
72
1
1
35
7
standard
210
0
220
0
230
1
50
0
73
2
44
1
0
LINE
5
144
100
AcDbEntity
8
0
6
CONTINUOUS
62
7
370
0
100
AcDbLine
10
135
20
110.625
11
135
21
126.640625
0
LINE
5
145
100
AcDbEntity
8
0
6
CONTINUOUS
62
7
370
0
100
AcDbLine
10
170
20
110.625
11
170
21
126.640625
0
ENDBLK
5
84
330
82
100
AcDbEntity
8
0
100
AcDbBlockEnd
0
BLOCK
5
86
330
85
100
AcDbEntity
8
0
100
AcDbBlockBegin
2
*D46
70
1
10
0
20
0
3
*D46
1

0
LINE
5
146
100
AcDbEntity
8
0
6
CONTINUOUS
62
7
370
0
100
AcDbLine
10
10
20
230.4
11
-5
21
230.4
0
SOLID
5
147
100
AcDbEntity
8
0
6
CONTINUOUS
62
7
370
0
100
AcDbTrace
10
5
20
230.4
30
0
11
7.5
21
230.816284658
31
0
12
7.5
22
229.983715342
32
0
13
7.5
23
229.983715342
33
0
0
SOLID
5
148
100
AcDbEntity
8
0
6
CONTINUOUS
62
7
370
0
100
AcDbTrace
10
0
20
230.4
30
0
11
-2.5
21
229.983715342
31
0
12
-2.5
22
230.816284658
32
0
13
-2.5
23
230.816284658
33
0
0
MTEXT
5
149
100
AcDbEntity
8
0
6
CONTINUOUS
62
7
370
0
100
AcDbMText
10
2.5
20
232.275
30
0
40
2.5
41
1.11111111111
71
5
72
1
1
5
7
standard
210
0
220
0
230
1
50
360
73
2
44
1
0
LINE
5
14A
100
AcDbEntity
8
0
6
CONTINUOUS
62
7
370
0
100
AcDbLine
10
5
20
234.375
11
5
21
229.15
0
LINE
5
14B
100
AcDbEntity
8
0
6
CONTINUOUS
62
7
370
0
100
AcDbLine
10
-1.1481063742e-16
20
234.375
11
-2.2962127484e-16
21
229.15
0
ENDBLK
5
87
330
85
100
AcDbEntity
8
0
100
AcDbBlockEnd
0
BLOCK
5
89
330
88
100
AcDbEntity
8
0
100
AcDbBlockBegin
2
*D31
70
1
10
0
20
0
3
*D31
1

0
LINE
5
14C
100
AcDbEntity
8
0
6
CONTINUOUS
62
7
370
0
100
AcDbLine
10
123.392
20
80
11
123.392
21
90
0
SOLID
5
14D
100
AcDbEntity
8
0
6
CONTINUOUS
62
7
370
0
100
AcDbTrace
10
123.392
20
80
30
0
11
122.975715342
21
82.5
31
0
12
123.808284658
22
82.5
32
0
13
123.808284658
23
82.5
33
0
0
SOLID
5
14E
100
AcDbEntity
8
0
6
CONTINUOUS
62
7
370
0
100
AcDbTrace
10
123.392
20
90
30
0
11
123.808284658
21
87.5
31
0
12
122.975715342
22
87.5
32
0
13
122.975715342
23
87.5
33
0
0
MTEXT
5
14F
100
AcDbEntity
8
0
6
CONTINUOUS
62
7
370
0
100
AcDbMText
10
121.517
20
85
30
0
40
2.5
41
2.5
71
5
72
1
1
10
7
standard
210
0
220
0
230
1
50
90
73
2
44
1
0
LINE
5
150
100
AcDbEntity
8
0
6
CONTINUOUS
62
7
370
0
100
AcDbLine
10
76.125
20
80
11
124.642
21
80
0
LINE
5
151
100
AcDbEntity
8
0
6
CONTINUOUS
62
7
370
0
100
AcDbLine
10
135.625
20
90
11
124.642
21
90
0
ENDBLK
5
8A
330
88
100
AcDbEntity
8
0
100
AcDbBlockEnd
0
BLOCK
5
8C
330
8B
100
AcDbEntity
8
0
100
AcDbBlockBegin
2
*D27
70
1
10
0
20
0
3
*D27
1

0
LINE
5
152
100
AcDbEntity
8
0
6
CONTINUOUS
62
7
370
0
100
AcDbLine
10
123.45344
20
80
11
123.45344
21
-5
0
SOLID
5
153
100
AcDbEntity
8
0
6
CONTINUOUS
62
7
370
0
100
AcDbTrace
10
123.45344
20
80
30
0
11
123.869724658
21
77.5
31
0
12
123.037155342
22
77.5
32
0
13
123.037155342
23
77.5
33
0
0
SOLID
5
154
100
AcDbEntity
8
0
6
CONTINUOUS
62
7
370
0
100
AcDbTrace
10
123.45344
20
-5
30
0
11
123.037155342
21
-2.5
31
0
12
123.869724658
22
-2.5
32
0
13
123.869724658
23
-2.5
33
0
0
MTEXT
5
155
100
AcDbEntity
8
0
6
CONTINUOUS
62
7
370
0
100
AcDbMText
10
121.57844
20
37.5
30
0
40
2.5
41
3.05555555556
71
5
72
1
1
85
7
standard
210
0
220
0
230
1
50
90
73
2
44
1
0
LINE
5
156
100
AcDbEntity
8
0
6
CONTINUOUS
62
7
370
0
100
AcDbLine
10
76.125
20
80
11
124.70344
21
80
0
LINE
5
157
100
AcDbEntity
8
0
6
CONTINUOUS
62
7
370
0
100
AcDbLine
10
76.125
20
-5
11
124.70344
21
-5
0
ENDBLK
5
8D
330
8B
100
AcDbEntity
8
0
100
AcDbBlockEnd
0
BLOCK
5
8F
330
8E
100
AcDbEntity
8
0
100
AcDbBlockBegin
2
*D26
70
1
10
0
20
0
3
*D26
1

0
LINE
5
158
100
AcDbEntity
8
0
6
CONTINUOUS
62
7
370
0
100
AcDbLine
10
24.96
20
120
11
24.96
21
150
0
SOLID
5
159
100
AcDbEntity
8
0
6
CONTINUOUS
62
7
370
0
100
AcDbTrace
10
24.96
20
120
30
0
11
24.5437153422
21
122.5
31
0
12
25.3762846578
22
122.5
32
0
13
25.3762846578
23
122.5
33
0
0
SOLID
5
15A
100
AcDbEntity
8
0
6
CONTINUOUS
62
7
370
0
100
AcDbTrace
10
24.96
20
150
30
0
11
25.3762846578
21
147.5
31
0
12
24.5437153422
22
147.5
32
0
13
24.5437153422
23
147.5
33
0
0
MTEXT
5
15B
100
AcDbEntity
8
0
6
CONTINUOUS
62
7
370
0
100
AcDbMText
10
23.085
20
135
30
0
40
2.5
41
3.05555555556
71
5
72
1
1
30
7
standard
210
0
220
0
230
1
50
90
73
2
44
1
0
LINE
5
15C
100
AcDbEntity
8
0
6
CONTINUOUS
62
7
370
0
100
AcDbLine
10
20.625
20
120
11
26.21
21
120
0
LINE
5
15D
100
AcDbEntity
8
0
6
CONTINUOUS
62
7
370
0
100
AcDbLine
10
20.625
20
150
11
26.21
21
150
0
ENDBLK
5
90
330
8E
100
AcDbEntity
8
0
100
AcDbBlockEnd
0
BLOCK
5
92
330
91
100
AcDbEntity
8
0
100
AcDbBlockBegin
2
*D35
70
1
10
0
20
0
3
*D35
1

0
LINE
5
15E
100
AcDbEntity
8
0
6
CONTINUOUS
62
7
370
0
100
AcDbLine
10
95.68
20
240
11
95.68
21
215
0
SOLID
5
15F
100
AcDbEntity
8
0
6
CONTINUOUS
62
7
370
0
100
AcDbTrace
10
95.68
20
240
30
0
11
96.0962846578
21
237.5
31
0
12
95.2637153422
22
237.5
32
0
13
95.2637153422
23
237.5
33
0
0
SOLID
5
160
100
AcDbEntity
8
0
6
CONTINUOUS
62
7
370
0
100
AcDbTrace
10
95.68
20
215
30
0
11
95.2637153422
21
217.5
31
0
12
96.0962846578
22
217.5
32
0
13
96.0962846578
23
217.5
33
0
0
MTEXT
5
161
100
AcDbEntity
8
0
6
CONTINUOUS
62
7
370
0
100
AcDbMText
10
93.805
20
227.5
30
0
40
2.5
41
3.05555555556
71
5
72
1
1
25
7
standard
210
0
220
0
230
1
50
90
73
2
44
1
0
LINE
5
162
100
AcDbEntity
8
0
6
CONTINUOUS
62
7
370
0
100
AcDbLine
10
90.625
20
240
11
96.93
21
240
0
LINE
5
163
100
AcDbEntity
8
0
6
CONTINUOUS
62
7
370
0
100
AcDbLine
10
90.625
20
215
11
96.93
21
215
0
ENDBLK
5
93
330
91
100
AcDbEntity
8
0
100
AcDbBlockEnd
0
BLOCK
5
95
330
94
100
AcDbEntity
8
0
100
AcDbBlockBegin
2
*D19
70
1
10
0
20
0
3
*D19
1

0
LINE
5
164
100
AcDbEntity
8
0
6
CONTINUOUS
62
7
370
0
100
AcDbLine
10
138.645273355
20
87.5287137922
11
132.354726645
21
92.4712862078
0
SOLID
5
165
100
AcDbEntity
8
0
6
CONTINUOUS
62
7
370
0
100
AcDbTrace
10
138.645273355
20
87.5287137922
30
0
11
136.422287875
21
88.7459354116
31
0
12
136.936667141
22
89.4005999327
32
0
13
136.936667141
23
89.4005999327
33
0
0
SOLID
5
166
100
AcDbEntity
8
0
6
CONTINUOUS
62
7
370
0
100
AcDbTrace
10
132.354726645
20
92.4712862078
30
0
11
134.577712125
21
91.2540645884
31
0
12
134.063332859
22
90.5994000673
32
0
13
134.063332859
23
90.5994000673
33
0
0
MTEXT
5
167
100
AcDbEntity
8
0
6
CONTINUOUS
62
7
370
0
100
AcDbMText
10
136.65841541
20
91.4743468853
30
0
40
2.5
41
3.61111111111
71
5
72
1
1
%%C8
7
standard
210
0
220
0
230
1
50
321.842773409
73
2
44
1
0
ENDBLK
5
96
330
94
100
AcDbEntity
8
0
100
AcDbBlockEnd
0
BLOCK
5
98
330
97
100
AcDbEntity
8
0
100
AcDbBlockBegin
2
*D33
70
1
10
0
20
0
3
*D33
1

0
LINE
5
168
100
AcDbEntity
8
0
6
CONTINUOUS
62
7
370
0
100
AcDbLine
10
162.72
20
230
11
162.72
21
245
0
SOLID
5
169
100
AcDbEntity
8
0
6
CONTINUOUS
62
7
370
0
100
AcDbTrace
10
162.72
20
235
30
0
11
163.136284658
21
232.5
31
0
12
162.303715342
22
232.5
32
0
13
162.303715342
23
232.5
33
0
0
SOLID
5
16A
100
AcDbEntity
8
0
6
CONTINUOUS
62
7
370
0
100
AcDbTrace
10
162.72
20
240
30
0
11
162.303715342
21
242.5
31
0
12
163.136284658
22
242.5
32
0
13
163.136284658
23
242.5
33
0
0
MTEXT
5
16B
100
AcDbEntity
8
0
6
CONTINUOUS
62
7
370
0
100
AcDbMText
10
160.845
20
237.5
30
0
40
2.5
41
1.11111111111
71
5
72
1
1
5
7
standard
210
0
220
0
230
1
50
90
73
2
44
1
0
LINE
5
16C
100
AcDbEntity
8
0
6
CONTINUOUS
62
7
370
0
100
AcDbLine
10
164.375
20
235
11
161.47
21
235
0
LINE
5
16D
100
AcDbEntity
8
0
6
CONTINUOUS
62
7
370
0
100
AcDbLine
10
164.375
20
240
11
161.47
21
240
0
ENDBLK
5
99
330
97
100
AcDbEntity
8
0
100
AcDbBlockEnd
0
BLOCK
5
9B
330
9A
100
AcDbEntity
8
0
100
AcDbBlockBegin
2
*D21
70
1
10
0
20
0
3
*D21
1

0
LINE
5
16E
100
AcDbEntity
8
0
6
CONTINUOUS
62
7
370
0
100
AcDbLine
10
14.4610049903
20
115.719867492
11
25.5389950097
21
124.280132508
0
SOLID
5
16F
100
AcDbEntity
8
0
6
CONTINUOUS
62
7
370
0
100
AcDbTrace
10
14.4610049903
20
115.719867492
30
0
11
16.1846812799
21
117.577886051
31
0
12
16.6937537074
22
116.919086439
32
0
13
16.6937537074
23
116.919086439
33
0
0
SOLID
5
170
100
AcDbEntity
8
0
6
CONTINUOUS
62
7
370
0
100
AcDbTrace
10
25.5389950097
20
124.280132508
30
0
11
23.8153187201
21
122.422113949
31
0
12
23.3062462926
22
123.080913561
32
0
13
23.3062462926
23
123.080913561
33
0
0
MTEXT
5
171
100
AcDbEntity
8
0
6
CONTINUOUS
62
7
370
0
100
AcDbMText
10
18.8535359354
20
121.483659378
30
0
40
2.5
41
5.27777777778
71
5
72
1
1
%%C14
7
standard
210
0
220
0
230
1
50
37.69424047
73
2
44
1
0
ENDBLK
5
9C
330
9A
100
AcDbEntity
8
0
100
AcDbBlockEnd
0
BLOCK
5
9E
330
9D
100
AcDbEntity
8
0
100
AcDbBlockBegin
2
*D13
70
1
10
0
20
0
3
*D13
1

0
LINE
5
172
100
AcDbEntity
8
0
6
CONTINUOUS
62
7
370
0
100
AcDbLine
10
105
20
21.75
11
135
21
21.75
0
SOLID
5
173
100
AcDbEntity
8
0
6
CONTINUOUS
62
7
370
0
100
AcDbTrace
10
105
20
21.75
30
0
11
107.5
21
22.1662846578
31
0
12
107.5
22
21.3337153422
32
0
13
107.5
23
21.3337153422
33
0
0
SOLID
5
174
100
AcDbEntity
8
0
6
CONTINUOUS
62
7
370
0
100
AcDbTrace
10
135
20
21.75
30
0
11
132.5
21
21.3337153422
31
0
12
132.5
22
22.1662846578
32
0
13
132.5
23
22.1662846578
33
0
0
MTEXT
5
175
100
AcDbEntity
8
0
6
CONTINUOUS
62
7
370
0
100
AcDbMText
10
120
20
23.625
30
0
40
2.5
41
3.05555555556
71
5
72
1
1
30
7
standard
210
0
220
0
230
1
50
0
73
2
44
1
0
LINE
5
176
100
AcDbEntity
8
0
6
CONTINUOUS
62
7
370
0
100
AcDbLine
10
105
20
15.625
11
105
21
23
0
LINE
5
177
100
AcDbEntity
8
0
6
CONTINUOUS
62
7
370
0
100
AcDbLine
10
135
20
15.625
11
135
21
23
0
ENDBLK
5
9F
330
9D
100
AcDbEntity
8
0
100
AcDbBlockEnd
0
BLOCK
5
A1
330
A0
100
AcDbEntity
8
0
100
AcDbBlockBegin
2
*D43
70
1
10
0
20
0
3
*D43
1

0
LINE
5
178
100
AcDbEntity
8
0
6
CONTINUOUS
62
7
370
0
100
AcDbLine
10
144.801750806
20
213.919029245
11
155.198249194
21
226.080970755
0
SOLID
5
179
100
AcDbEntity
8
0
6
CONTINUOUS
62
7
370
0
100
AcDbTrace
10
148.050656552
20
217.719635967
30
0
11
146.742630533
21
215.548838683
31
0
12
146.109776826
22
216.089826529
32
0
13
146.109776826
23
216.089826529
33
0
0
SOLID
5
17A
100
AcDbEntity
8
0
6
CONTINUOUS
62
7
370
0
100
AcDbTrace
10
151.949343448
20
222.280364033
30
0
11
153.257369467
21
224.451161317
31
0
12
153.890223174
22
223.910173471
32
0
13
153.890223174
23
223.910173471
33
0
0
MTEXT
5
17B
100
AcDbEntity
8
0
6
CONTINUOUS
62
7
370
0
100
AcDbMText
10
148.574772479
20
221.218339655
30
0
40
2.5
41
3.61111111111
71
5
72
1
1
%%C6
7
standard
210
0
220
0
230
1
50
49.4748965063
73
2
44
1
0
ENDBLK
5
A2
330
A0
100
AcDbEntity
8
0
100
AcDbBlockEnd
0
BLOCK
5
A4
330
A3
100
AcDbEntity
8
0
100
AcDbBlockBegin
2
*D42
70
1
10
0
20
0
3
*D42
1

0
LINE
5
17C
100
AcDbEntity
8
0
6
CONTINUOUS
62
7
370
0
100
AcDbLine
10
55.8436702753
20
210.002508307
11
64.1563297247
21
219.997491693
0
SOLID
5
17D
100
AcDbEntity
8
0
6
CONTINUOUS
62
7
370
0
100
AcDbTrace
10
59.0408469866
20
213.846732686
30
0
11
57.762316957
21
211.658433374
31
0
12
57.122200305
22
212.190807619
32
0
13
57.122200305
23
212.190807619
33
0
0
SOLID
5
17E
100
AcDbEntity
8
0
6
CONTINUOUS
62
7
370
0
100
AcDbTrace
10
60.9591530134
20
216.153267314
30
0
11
62.237683043
21
218.341566626
31
0
12
62.877799695
22
217.809192381
32
0
13
62.877799695
23
217.809192381
33
0
0
MTEXT
5
17F
100
AcDbEntity
8
0
6
CONTINUOUS
62
7
370
0
100
AcDbMText
10
61.0717519948
20
219.220928765
30
0
40
2.5
41
3.61111111111
71
5
72
1
1
%%C3
7
standard
210
0
220
0
230
1
50
50.2502727299
73
2
44
1
0
ENDBLK
5
A5
330
A3
100
AcDbEntity
8
0
100
AcDbBlockEnd
0
BLOCK
5
A7
330
A6
100
AcDbEntity
8
0
100
AcDbBlockBegin
2
*D38
70
1
10
0
20
0
3
*D38
1

0
LINE
5
180
100
AcDbEntity
8
0
6
CONTINUOUS
62
7
370
0
100
AcDbLine
10
150
20
214.72
11
170
21
214.72
0
SOLID
5
181
100
AcDbEntity
8
0
6
CONTINUOUS
62
7
370
0
100
AcDbTrace
10
150
20
214.72
30
0
11
152.5
21
215.136284658
31
0
12
152.5
22
214.303715342
32
0
13
152.5
23
214.303715342
33
0
0
SOLID
5
182
100
AcDbEntity
8
0
6
CONTINUOUS
62
7
370
0
100
AcDbTrace
10
170
20
214.72
30
0
11
167.5
21
214.303715342
31
0
12
167.5
22
215.136284658
32
0
13
167.5
23
215.136284658
33
0
0
MTEXT
5
183
100
AcDbEntity
8
0
6
CONTINUOUS
62
7
370
0
100
AcDbMText
10
160
20
216.595
30
0
40
2.5
41
3.05555555556
71
5
72
1
1
20
7
standard
210
0
220
0
230
1
50
0
73
2
44
1
0
LINE
5
184
100
AcDbEntity
8
0
6
CONTINUOUS
62
7
370
0
100
AcDbLine
10
150
20
219.375
11
150
21
213.47
0
LINE
5
185
100
AcDbEntity
8
0
6
CONTINUOUS
62
7
370
0
100
AcDbLine
10
170
20
219.375
11
170
21
213.47
0
ENDBLK
5
A8
330
A6
100
AcDbEntity
8
0
100
AcDbBlockEnd
0
BLOCK
5
AA
330
A9
100
AcDbEntity
8
0
100
AcDbBlockBegin
2
*D47
70
1
10
0
20
0
3
*D47
1

0
LINE
5
186
100
AcDbEntity
8
0
6
CONTINUOUS
62
7
370
0
100
AcDbLine
10
11.0592
20
230
11
11.0592
21
245
0
SOLID
5
187
100
AcDbEntity
8
0
6
CONTINUOUS
62
7
370
0
100
AcDbTrace
10
11.0592
20
235
30
0
11
11.4754846578
21
232.5
31
0
12
10.6429153422
22
232.5
32
0
13
10.6429153422
23
232.5
33
0
0
SOLID
5
188
100
AcDbEntity
8
0
6
CONTINUOUS
62
7
370
0
100
AcDbTrace
10
11.0592
20
240
30
0
11
10.6429153422
21
242.5
31
0
12
11.4754846578
22
242.5
32
0
13
11.4754846578
23
242.5
33
0
0
MTEXT
5
189
100
AcDbEntity
8
0
6
CONTINUOUS
62
7
370
0
100
AcDbMText
10
9.1842
20
237.5
30
0
40
2.5
41
1.11111111111
71
5
72
1
1
5
7
standard
210
0
220
0
230
1
50
90
73
2
44
1
0
LINE
5
18A
100
AcDbEntity
8
0
6
CONTINUOUS
62
7
370
0
100
AcDbLine
10
5.625
20
235
11
12.3092
21
235
0
LINE
5
18B
100
AcDbEntity
8
0
6
CONTINUOUS
62
7
370
0
100
AcDbLine
10
5.625
20
240
11
12.3092
21
240
0
ENDBLK
5
AB
330
A9
100
AcDbEntity
8
0
100
AcDbBlockEnd
0
BLOCK
5
AD
330
AC
100
AcDbEntity
8
0
100
AcDbBlockBegin
2
*D25
70
1
10
0
20
0
3
*D25
1

0
LINE
5
18C
100
AcDbEntity
8
0
6
CONTINUOUS
62
7
370
0
100
AcDbLine
10
9.44
20
130
11
9.44
21
150
0
SOLID
5
18D
100
AcDbEntity
8
0
6
CONTINUOUS
62
7
370
0
100
AcDbTrace
10
9.44
20
130
30
0
11
9.02371534223
21
132.5
31
0
12
9.85628465777
22
132.5
32
0
13
9.85628465777
23
132.5
33
0
0
SOLID
5
18E
100
AcDbEntity
8
0
6
CONTINUOUS
62
7
370
0
100
AcDbTrace
10
9.44
20
150
30
0
11
9.85628465777
21
147.5
31
0
12
9.02371534223
22
147.5
32
0
13
9.02371534223
23
147.5
33
0
0
MTEXT
5
18F
100
AcDbEntity
8
0
6
CONTINUOUS
62
7
370
0
100
AcDbMText
10
7.565
20
140
30
0
40
2.5
41
3.05555555556
71
5
72
1
1
20
7
standard
210
0
220
0
230
1
50
90
73
2
44
1
0
LINE
5
190
100
AcDbEntity
8
0
6
CONTINUOUS
62
7
370
0
100
AcDbLine
10
5.625
20
130
11
10.69
21
130
0
LINE
5
191
100
AcDbEntity
8
0
6
CONTINUOUS
62
7
370
0
100
AcDbLine
10
5.625
20
150
11
10.69
21
150
0
ENDBLK
5
AE
330
AC
100
AcDbEntity
8
0
100
AcDbBlockEnd
0
BLOCK
5
B0
330
AF
100
AcDbEntity
8
0
100
AcDbBlockBegin
2
*D41
70
1
10
0
20
0
3
*D41
1

0
LINE
5
192
100
AcDbEntity
8
0
6
CONTINUOUS
62
7
370
0
100
AcDbLine
10
54.56
20
215
11
54.56
21
240
0
SOLID
5
193
100
AcDbEntity
8
0
6
CONTINUOUS
62
7
370
0
100
AcDbTrace
10
54.56
20
215
30
0
11
54.1437153422
21
217.5
31
0
12
54.9762846578
22
217.5
32
0
13
54.9762846578
23
217.5
33
0
0
SOLID
5
194
100
AcDbEntity
8
0
6
CONTINUOUS
62
7
370
0
100
AcDbTrace
10
54.56
20
240
30
0
11
54.9762846578
21
237.5
31
0
12
54.1437153422
22
237.5
32
0
13
54.1437153422
23
237.5
33
0
0
MTEXT
5
195
100
AcDbEntity
8
0
6
CONTINUOUS
62
7
370
0
100
AcDbMText
10
52.685
20
227.5
30
0
40
2.5
41
3.05555555556
71
5
72
1
1
25
7
standard
210
0
220
0
230
1
50
90
73
2
44
1
0
LINE
5
196
100
AcDbEntity
8
0
6
CONTINUOUS
62
7
370
0
100
AcDbLine
10
59.375
20
215
11
53.31
21
215
0
LINE
5
197
100
AcDbEntity
8
0
6
CONTINUOUS
62
7
370
0
100
AcDbLine
10
59.375
20
240
11
53.31
21
240
0
ENDBLK
5
B1
330
AF
100
AcDbEntity
8
0
100
AcDbBlockEnd
0
BLOCK
5
B3
330
B2
100
AcDbEntity
8
0
100
AcDbBlockBegin
2
*D5
70
1
10
0
20
0
3
*D5
1

0
LINE
5
198
100
AcDbEntity
8
0
6
CONTINUOUS
62
7
370
0
100
AcDbLine
10
24.8832
20
30
11
24.8832
21
-5
0
SOLID
5
199
100
AcDbEntity
8
0
6
CONTINUOUS
62
7
370
0
100
AcDbTrace
10
24.8832
20
30
30
0
11
25.2994846578
21
27.5
31
0
12
24.4669153422
22
27.5
32
0
13
24.4669153422
23
27.5
33
0
0
SOLID
5
19A
100
AcDbEntity
8
0
6
CONTINUOUS
62
7
370
0
100
AcDbTrace
10
24.8832
20
-5
30
0
11
24.4669153422
21
-2.5
31
0
12
25.2994846578
22
-2.5
32
0
13
25.2994846578
23
-2.5
33
0
0
MTEXT
5
19B
100
AcDbEntity
8
0
6
CONTINUOUS
62
7
370
0
100
AcDbMText
10
23.0082
20
12.5
30
0
40
2.5
41
3.05555555556
71
5
72
1
1
35
7
standard
210
0
220
0
230
1
50
90
73
2
44
1
0
LINE
5
19C
100
AcDbEntity
8
0
6
CONTINUOUS
62
7
370
0
100
AcDbLine
10
20.625
20
30
11
26.1332
21
30
0
LINE
5
19D
100
AcDbEntity
8
0
6
CONTINUOUS
62
7
370
0
100
AcDbLine
10
20.625
20
-5
11
26.1332
21
-5
0
ENDBLK
5
B4
330
B2
100
AcDbEntity
8
0
100
AcDbBlockEnd
0
BLOCK
5
B6
330
B5
100
AcDbEntity
8
0
100
AcDbBlockBegin
2
*D10
70
1
10
0
20
0
3
*D10
1

0
LINE
5
19E
100
AcDbEntity
8
0
6
CONTINUOUS
62
7
370
0
100
AcDbLine
10
75
20
21.5
11
4.93038065763e-32
21
21.5
0
SOLID
5
19F
100
AcDbEntity
8
0
6
CONTINUOUS
62
7
370
0
100
AcDbTrace
10
75
20
21.5
30
0
11
72.5
21
21.0837153422
31
0
12
72.5
22
21.9162846578
32
0
13
72.5
23
21.9162846578
33
0
0
SOLID
5
1A0
100
AcDbEntity
8
0
6
CONTINUOUS
62
7
370
0
100
AcDbTrace
10
4.93038065763e-32
20
21.5
30
0
11
2.5
21
21.9162846578
31
0
12
2.5
22
21.0837153422
32
0
13
2.5
23
21.0837153422
33
0
0
MTEXT
5
1A1
100
AcDbEntity
8
0
6
CONTINUOUS
62
7
370
0
100
AcDbMText
10
37.5
20
23.375
30
0
40
2.5
41
3.05555555556
71
5
72
1
1
75
7
standard
210
0
220
0
230
1
50
360
73
2
44
1
0
LINE
5
1A2
100
AcDbEntity
8
0
6
CONTINUOUS
62
7
370
0
100
AcDbLine
10
75
20
15.625
11
75
21
22.75
0
LINE
5
1A3
100
AcDbEntity
8
0
6
CONTINUOUS
62
7
370
0
100
AcDbLine
10
3.82702124734e-17
20
15.625
11
7.65404249467e-17
21
22.75
0
ENDBLK
5
B7
330
B5
100
AcDbEntity
8
0
100
AcDbBlockEnd
0
BLOCK
5
B9
330
B8
100
AcDbEntity
8
0
100
AcDbBlockBegin
2
*D22
70
1
10
0
20
0
3
*D22
1

0
LINE
5
1A4
100
AcDbEntity
8
0
6
CONTINUOUS
62
7
370
0
100
AcDbLine
10
170.366563147
20
132.68328157
11
159.633436853
21
127.31671843
0
SOLID
5
1A5
100
AcDbEntity
8
0
6
CONTINUOUS
62
7
370
0
100
AcDbTrace
10
165.894427191
20
130.447213595
30
0
11
167.944327011
21
131.9375839
31
0
12
168.316663327
22
131.192911266
32
0
13
168.316663327
23
131.192911266
33
0
0
SOLID
5
1A6
100
AcDbEntity
8
0
6
CONTINUOUS
62
7
370
0
100
AcDbTrace
10
164.105572809
20
129.552786405
30
0
11
162.055672989
21
128.0624161
31
0
12
161.683336673
22
128.807088734
32
0
13
161.683336673
23
128.807088734
33
0
0
MTEXT
5
1A7
100
AcDbEntity
8
0
6
CONTINUOUS
62
7
370
0
100
AcDbMText
10
167.229856679
20
133.211242066
30
0
40
2.5
41
3.61111111111
71
5
72
1
1
%%C2
7
standard
210
0
220
0
230
1
50
26.5650511515
73
2
44
1
0
ENDBLK
5
BA
330
B8
100
AcDbEntity
8
0
100
AcDbBlockEnd
0
BLOCK
5
BC
330
BB
100
AcDbEntity
8
0
100
AcDbBlockBegin
2
*D3
70
1
10
0
20
0
3
*D3
1

0
LINE
5
1A8
100
AcDbEntity
8
0
6
CONTINUOUS
62
7
370
0
100
AcDbLine
10
0
20
108.3392
11
20
21
108.3392
0
SOLID
5
1A9
100
AcDbEntity
8
0
6
CONTINUOUS
62
7
370
0
100
AcDbTrace
10
0
20
108.3392
30
0
11
2.5
21
108.755484658
31
0
12
2.5
22
107.922915342
32
0
13
2.5
23
107.922915342
33
0
0
SOLID
5
1AA
100
AcDbEntity
8
0
6
CONTINUOUS
62
7
370
0
100
AcDbTrace
10
20
20
108.3392
30
0
11
17.5
21
107.922915342
31
0
12
17.5
22
108.755484658
32
0
13
17.5
23
108.755484658
33
0
0
MTEXT
5
1AB
100
AcDbEntity
8
0
6
CONTINUOUS
62
7
370
0
100
AcDbMText
10
10
20
110.2142
30
0
40
2.5
41
3.05555555556
71
5
72
1
1
20
7
standard
210
0
220
0
230
1
50
0
73
2
44
1
0
LINE
5
1AC
100
AcDbEntity
8
0
6
CONTINUOUS
62
7
370
0
100
AcDbLine
10
-1.1481063742e-16
20
119.375
11
-2.2962127484e-16
21
107.0892
0
LINE
5
1AD
100
AcDbEntity
8
0
6
CONTINUOUS
62
7
370
0
100
AcDbLine
10
20
20
119.375
11
20
21
107.0892
0
ENDBLK
5
BD
330
BB
100
AcDbEntity
8
0
100
AcDbBlockEnd
0
BLOCK
5
BF
330
BE
100
AcDbEntity
8
0
100
AcDbBlockBegin
2
*D7
70
1
10
0
20
0
3
*D7
1

0
LINE
5
1AE
100
AcDbEntity
8
0
6
CONTINUOUS
62
7
370
0
100
AcDbLine
10
170.366563146
20
-2.68328157312
11
159.633436854
21
2.68328157312
0
SOLID
5
1AF
100
AcDbEntity
8
0
6
CONTINUOUS
62
7
370
0
100
AcDbTrace
10
165.894427191
20
-0.447213595525
30
0
11
168.316663327
21
-1.19291126722
31
0
12
167.94432701
22
-1.93758390143
32
0
13
167.94432701
23
-1.93758390143
33
0
0
SOLID
5
1B0
100
AcDbEntity
8
0
6
CONTINUOUS
62
7
370
0
100
AcDbTrace
10
164.105572809
20
0.447213595525
30
0
11
161.683336673
21
1.19291126722
31
0
12
162.05567299
22
1.93758390143
32
0
13
162.05567299
23
1.93758390143
33
0
0
MTEXT
5
1B1
100
AcDbEntity
8
0
6
CONTINUOUS
62
7
370
0
100
AcDbMText
10
168.906907661
20
0.142859898464
30
0
40
2.5
41
3.61111111111
71
5
72
1
1
%%C2
7
standard
210
0
220
0
230
1
50
333.434948822
73
2
44
1
0
ENDBLK
5
C0
330
BE
100
AcDbEntity
8
0
100
AcDbBlockEnd
0
BLOCK
5
C2
330
C1
100
AcDbEntity
8
0
100
AcDbBlockBegin
2
*D20
70
1
10
0
20
0
3
*D20
1

0
LINE
5
1B2
100
AcDbEntity
8
0
6
CONTINUOUS
62
7
370
0
100
AcDbLine
10
138.639531062
20
67.5214228457
11
132.360468938
21
72.4785771543
0
SOLID
5
1B3
100
AcDbEntity
8
0
6
CONTINUOUS
62
7
370
0
100
AcDbTrace
10
138.639531062
20
67.5214228457
30
0
11
136.419375738
21
68.7437989137
31
0
12
136.935272559
22
69.3972682206
32
0
13
136.935272559
23
69.3972682206
33
0
0
SOLID
5
1B4
100
AcDbEntity
8
0
6
CONTINUOUS
62
7
370
0
100
AcDbTrace
10
132.360468938
20
72.4785771543
30
0
11
134.580624262
21
71.2562010863
31
0
12
134.064727441
22
70.6027317794
32
0
13
134.064727441
23
70.6027317794
33
0
0
MTEXT
5
1B5
100
AcDbEntity
8
0
6
CONTINUOUS
62
7
370
0
100
AcDbMText
10
136.661833041
20
71.4716551854
30
0
40
2.5
41
3.61111111111
71
5
72
1
1
%%C8
7
standard
210
0
220
0
230
1
50
321.709836807
73
2
44
1
0
ENDBLK
5
C3
330
C1
100
AcDbEntity
8
0
100
AcDbBlockEnd
0
BLOCK
5
C5
330
C4
100
AcDbEntity
8
0
100
AcDbBlockBegin
2
*D45
70
1
10
0
20
0
3
*D45
1

0
LINE
5
1B6
100
AcDbEntity
8
0
6
CONTINUOUS
62
7
370
0
100
AcDbLine
10
162.620973357
20
229.491803178
11
167.379026643
21
240.508196822
0
SOLID
5
1B7
100
AcDbEntity
8
0
6
CONTINUOUS
62
7
370
0
100
AcDbTrace
10
164.603495559
20
234.081967196
30
0
11
163.99439743
21
231.621826472
31
0
12
163.230071487
22
231.951943902
32
0
13
163.230071487
23
231.951943902
33
0
0
SOLID
5
1B8
100
AcDbEntity
8
0
6
CONTINUOUS
62
7
370
0
100
AcDbTrace
10
165.396504441
20
235.918032804
30
0
11
166.00560257
21
238.378173528
31
0
12
166.769928513
22
238.048056098
32
0
13
166.769928513
23
238.048056098
33
0
0
MTEXT
5
1B9
100
AcDbEntity
8
0
6
CONTINUOUS
62
7
370
0
100
AcDbMText
10
164.638919004
20
238.892808361
30
0
40
2.5
41
3.61111111111
71
5
72
1
1
%%C2
7
standard
210
0
220
0
230
1
50
66.6401647536
73
2
44
1
0
ENDBLK
5
C6
330
C4
100
AcDbEntity
8
0
100
AcDbBlockEnd
0
BLOCK
5
C8
330
C7
100
AcDbEntity
8
0
100
AcDbBlockBegin
2
*D44
70
1
10
0
20
0
3
*D44
1

0
LINE
5
1BA
100
AcDbEntity
8
0
6
CONTINUOUS
62
7
370
0
100
AcDbLine
10
0.874220954945
20
175.643631412
11
9.12577904506
21
184.356368588
0
SOLID
5
1BB
100
AcDbEntity
8
0
6
CONTINUOUS
62
7
370
0
100
AcDbTrace
10
4.31237015916
20
179.273938569
30
0
11
2.89554379149
21
177.172535238
31
0
12
2.29104732261
22
177.745034744
32
0
13
2.29104732261
23
177.745034744
33
0
0
SOLID
5
1BC
100
AcDbEntity
8
0
6
CONTINUOUS
62
7
370
0
100
AcDbTrace
10
5.68762984084
20
180.726061431
30
0
11
7.10445620851
21
182.827464762
31
0
12
7.70895267739
22
182.254965256
32
0
13
7.70895267739
23
182.254965256
33
0
0
MTEXT
5
1BD
100
AcDbEntity
8
0
6
CONTINUOUS
62
7
370
0
100
AcDbMText
10
5.99758718703
20
183.780100028
30
0
40
2.5
41
3.61111111111
71
5
72
1
1
%%C2
7
standard
210
0
220
0
230
1
50
46.5572181625
73
2
44
1
0
ENDBLK
5
C9
330
C7
100
AcDbEntity
8
0
100
AcDbBlockEnd
0
BLOCK
5
CB
330
CA
100
AcDbEntity
8
0
100
AcDbBlockBegin
2
*D11
70
1
10
0
20
0
3
*D11
1

0
LINE
5
1BE
100
AcDbEntity
8
0
6
CONTINUOUS
62
7
370
0
100
AcDbLine
10
75
20
21.75
11
105
21
21.75
0
SOLID
5
1BF
100
AcDbEntity
8
0
6
CONTINUOUS
62
7
370
0
100
AcDbTrace
10
75
20
21.75
30
0
11
77.5
21
22.1662846578
31
0
12
77.5
22
21.3337153422
32
0
13
77.5
23
21.3337153422
33
0
0
SOLID
5
1C0
100
AcDbEntity
8
0
6
CONTINUOUS
62
7
370
0
100
AcDbTrace
10
105
20
21.75
30
0
11
102.5
21
21.3337153422
31
0
12
102.5
22
22.1662846578
32
0
13
102.5
23
22.1662846578
33
0
0
MTEXT
5
1C1
100
AcDbEntity
8
0
6
CONTINUOUS
62
7
370
0
100
AcDbMText
10
90
20
23.625
30
0
40
2.5
41
3.05555555556
71
5
72
1
1
30
7
standard
210
0
220
0
230
1
50
0
73
2
44
1
0
LINE
5
1C2
100
AcDbEntity
8
0
6
CONTINUOUS
62
7
370
0
100
AcDbLine
10
75
20
15.625
11
75
21
23
0
LINE
5
1C3
100
AcDbEntity
8
0
6
CONTINUOUS
62
7
370
0
100
AcDbLine
10
105
20
15.625
11
105
21
23
0
ENDBLK
5
CC
330
CA
100
AcDbEntity
8
0
100
AcDbBlockEnd
0
BLOCK
5
CE
330
CD
100
AcDbEntity
8
0
100
AcDbBlockBegin
2
*D39
70
1
10
0
20
0
3
*D39
1

0
LINE
5
1C4
100
AcDbEntity
8
0
6
CONTINUOUS
62
7
370
0
100
AcDbLine
10
142.56
20
220
11
142.56
21
240
0
SOLID
5
1C5
100
AcDbEntity
8
0
6
CONTINUOUS
62
7
370
0
100
AcDbTrace
10
142.56
20
220
30
0
11
142.143715342
21
222.5
31
0
12
142.976284658
22
222.5
32
0
13
142.976284658
23
222.5
33
0
0
SOLID
5
1C6
100
AcDbEntity
8
0
6
CONTINUOUS
62
7
370
0
100
AcDbTrace
10
142.56
20
240
30
0
11
142.976284658
21
237.5
31
0
12
142.143715342
22
237.5
32
0
13
142.143715342
23
237.5
33
0
0
MTEXT
5
1C7
100
AcDbEntity
8
0
6
CONTINUOUS
62
7
370
0
100
AcDbMText
10
140.685
20
230
30
0
40
2.5
41
3.05555555556
71
5
72
1
1
20
7
standard
210
0
220
0
230
1
50
90
73
2
44
1
0
LINE
5
1C8
100
AcDbEntity
8
0
6
CONTINUOUS
62
7
370
0
100
AcDbLine
10
149.375
20
220
11
141.31
21
220
0
LINE
5
1C9
100
AcDbEntity
8
0
6
CONTINUOUS
62
7
370
0
100
AcDbLine
10
149.375
20
240
11
141.31
21
240
0
ENDBLK
5
CF
330
CD
100
AcDbEntity
8
0
100
AcDbBlockEnd
0
BLOCK
5
D1
330
D0
100
AcDbEntity
8
0
100
AcDbBlockBegin
2
*D29
70
1
10
0
20
0
3
*D29
1

0
LINE
5
1CA
100
AcDbEntity
8
0
6
CONTINUOUS
62
7
370
0
100
AcDbLine
10
123.392
20
110
11
123.392
21
150
0
SOLID
5
1CB
100
AcDbEntity
8
0
6
CONTINUOUS
62
7
370
0
100
AcDbTrace
10
123.392
20
110
30
0
11
122.975715342
21
112.5
31
0
12
123.808284658
22
112.5
32
0
13
123.808284658
23
112.5
33
0
0
SOLID
5
1CC
100
AcDbEntity
8
0
6
CONTINUOUS
62
7
370
0
100
AcDbTrace
10
123.392
20
150
30
0
11
123.808284658
21
147.5
31
0
12
122.975715342
22
147.5
32
0
13
122.975715342
23
147.5
33
0
0
MTEXT
5
1CD
100
AcDbEntity
8
0
6
CONTINUOUS
62
7
370
0
100
AcDbMText
10
121.517
20
130
30
0
40
2.5
41
3.33333333333
71
5
72
1
1
40
7
standard
210
0
220
0
230
1
50
90
73
2
44
1
0
LINE
5
1CE
100
AcDbEntity
8
0
6
CONTINUOUS
62
7
370
0
100
AcDbLine
10
134.375
20
110
11
122.142
21
110
0
LINE
5
1CF
100
AcDbEntity
8
0
6
CONTINUOUS
62
7
370
0
100
AcDbLine
10
134.375
20
150
11
122.142
21
150
0
ENDBLK
5
D2
330
D0
100
AcDbEntity
8
0
100
AcDbBlockEnd
0
BLOCK
5
D4
330
D3
100
AcDbEntity
8
0
100
AcDbBlockBegin
2
*D15
70
1
10
0
20
0
3
*D15
1

0
LINE
5
1D0
100
AcDbEntity
8
0
6
CONTINUOUS
62
7
370
0
100
AcDbLine
10
132.797101486
20
17.9486165608
11
138.202898514
21
12.0513834392
0
SOLID
5
1D1
100
AcDbEntity
8
0
6
CONTINUOUS
62
7
370
0
100
AcDbTrace
10
132.797101486
20
17.9486165608
30
0
11
134.793279016
21
16.387025006
31
0
12
134.179547098
22
15.8244374146
32
0
13
134.179547098
23
15.8244374146
33
0
0
SOLID
5
1D2
100
AcDbEntity
8
0
6
CONTINUOUS
62
7
370
0
100
AcDbTrace
10
138.202898514
20
12.0513834392
30
0
11
136.206720984
21
13.612974994
31
0
12
136.820452902
22
14.1755625854
32
0
13
136.820452902
23
14.1755625854
33
0
0
MTEXT
5
1D3
100
AcDbEntity
8
0
6
CONTINUOUS
62
7
370
0
100
AcDbMText
10
136.882164013
20
16.2669836785
30
0
40
2.5
41
1.11111111111
71
5
72
1
1
8
7
standard
210
0
220
0
230
1
50
312.510447077
73
2
44
1
0
ENDBLK
5
D5
330
D3
100
AcDbEntity
8
0
100
AcDbBlockEnd
0
ENDSEC
0
SECTION
2
ENTITIES
0
LINE
5
1D4
100
AcDbEntity
8
0
6
ByLayer
62
256
370
-1
100
AcDbLine
10
0
20
140
11
0
21
240
0
CIRCLE
5
1D5
100
AcDbEntity
8
0
6
ByLayer
62
256
370
-1
100
AcDbCircle
10
5
20
235
40
1
0
CIRCLE
5
1D6
100
AcDbEntity
8
0
6
ByLayer
62
256
370
-1
100
AcDbCircle
10
5
20
180
40
1
0
CIRCLE
5
1D7
100
AcDbEntity
8
0
6
ByLayer
62
256
370
-1
100
AcDbCircle
10
20
20
120
40
7
0
CIRCLE
5
1D8
100
AcDbEntity
8
0
6
ByLayer
62
256
370
-1
100
AcDbCircle
10
75.5
20
15
40
4
0
CIRCLE
5
1D9
100
AcDbEntity
8
0
6
ByLayer
62
256
370
-1
100
AcDbCircle
10
105.5
20
15
40
4
0
CIRCLE
5
1DA
100
AcDbEntity
8
0
6
ByLayer
62
256
370
-1
100
AcDbCircle
10
135.5
20
15
40
4
0
CIRCLE
5
1DB
100
AcDbEntity
8
0
6
ByLayer
62
256
370
-1
100
AcDbCircle
10
135.5
20
90
40
4
0
CIRCLE
5
1DC
100
AcDbEntity
8
0
6
ByLayer
62
256
370
-1
100
AcDbCircle
10
135.5
20
70
40
4
0
CIRCLE
5
1DD
100
AcDbEntity
8
0
6
ByLayer
62
256
370
-1
100
AcDbCircle
10
135.5
20
110
40
4
0
CIRCLE
5
1DE
100
AcDbEntity
8
0
6
ByLayer
62
256
370
-1
100
AcDbCircle
10
135.5
20
50
40
4
0
LINE
5
1DF
100
AcDbEntity
8
0
6
ByLayer
62
256
370
-1
100
AcDbLine
10
170
20
240
11
170
21
140
0
CIRCLE
5
1E0
100
AcDbEntity
8
0
6
ByLayer
62
256
370
-1
100
AcDbCircle
10
165
20
180
40
1
0
CIRCLE
5
1E1
100
AcDbEntity
8
0
6
ByLayer
62
256
370
-1
100
AcDbCircle
10
165
20
235
40
1
0
CIRCLE
5
1E2
100
AcDbEntity
8
0
6
ByLayer
62
256
370
-1
100
AcDbCircle
10
150
20
220
40
3
0
LINE
5
1E3
100
AcDbEntity
8
0
6
ByLayer
62
256
370
-1
100
AcDbLine
10
155
20
205
11
145
21
210
0
LINE
5
1E4
100
AcDbEntity
8
0
6
ByLayer
62
256
370
-1
100
AcDbLine
10
145
20
205
11
155
21
205
0
LINE
5
1E5
100
AcDbEntity
8
0
6
ByLayer
62
256
370
-1
100
AcDbLine
10
145
20
210
11
145
21
205
0
LINE
5
1E6
100
AcDbEntity
8
0
6
ByLayer
62
256
370
-1
100
AcDbLine
10
0
20
240
11
80
21
240
0
LINE
5
1E7
100
AcDbEntity
8
0
6
ByLayer
62
256
370
-1
100
AcDbLine
10
90
20
240
11
170
21
240
0
LINE
5
1E8
100
AcDbEntity
8
0
6
ByLayer
62
256
370
-1
100
AcDbLine
10
80
20
240
11
80
21
215
0
LINE
5
1E9
100
AcDbEntity
8
0
6
ByLayer
62
256
370
-1
100
AcDbLine
10
90
20
215
11
90
21
240
0
LINE
5
1EA
100
AcDbEntity
8
0
6
ByLayer
62
256
370
-1
100
AcDbLine
10
80
20
215
11
90
21
215
0
CIRCLE
5
1EB
100
AcDbEntity
8
0
6
ByLayer
62
256
370
-1
100
AcDbCircle
10
110
20
215
40
1.5
0
CIRCLE
5
1EC
100
AcDbEntity
8
0
6
ByLayer
62
256
370
-1
100
AcDbCircle
10
60
20
215
40
1.5
0
MTEXT
5
1ED
100
AcDbEntity
8
0
6
ByLayer
62
256
370
-1
100
AcDbMText
10
144
20
113.25
30
0
40
6
41
19.999998728
71
1
72
1
1
Aline\PJules\PSalon\PTous
7
standard
210
0
220
0
230
1
50
0
73
2
44
2
0
MTEXT
5
1EE
100
AcDbEntity
8
0
6
ByLayer
62
256
370
-1
100
AcDbMText
10
59.75
20
8.25
30
0
40
6
41
89.0000030857
71
1
72
1
1
Absent Buzzer Parler
7
standard
210
0
220
0
230
1
50
0
73
2
44
2
0
CIRCLE
5
1EF
100
AcDbEntity
8
0
6
ByLayer
62
256
370
-1
100
AcDbCircle
10
20
20
30
40
3.5
0
CIRCLE
5
1F0
100
AcDbEntity
8
0
6
ByLayer
62
256
370
-1
100
AcDbCircle
10
75.5
20
80
40
41
0
LINE
5
1F1
100
AcDbEntity
8
0
6
CONTINUOUS
62
256
370
-1
100
AcDbLine
10
0
20
-5
11
170
21
-5
0
LINE
5
1F2
100
AcDbEntity
8
0
6
ByLayer
62
256
370
-1
100
AcDbLine
10
0
20
140
11
0
21
-5
0
LINE
5
1F3
100
AcDbEntity
8
0
6
ByLayer
62
256
370
-1
100
AcDbLine
10
170
20
-5
11
170
21
140
0
CIRCLE
5
1F4
100
AcDbEntity
8
0
6
ByLayer
62
256
370
-1
100
AcDbCircle
10
5
20
0
40
1
0
CIRCLE
5
1F5
100
AcDbEntity
8
0
6
ByLayer
62
256
370
-1
100
AcDbCircle
10
165
20
0
40
1
0
LINE
5
1F6
100
AcDbEntity
8
0
6
DASHED2
62
256
370
-1
100
AcDbLine
10
170
20
150
11
0
21
150
0
CIRCLE
5
1F7
100
AcDbEntity
8
0
6
ByLayer
62
256
370
-1
100
AcDbCircle
10
5
20
130
40
1
0
CIRCLE
5
1F8
100
AcDbEntity
8
0
6
ByLayer
62
256
370
-1
100
AcDbCircle
10
165
20
130
40
1
0
DIMENSION
5
1F9
100
AcDbEntity
8
0
6
ByLayer
62
256
370
-1
100
AcDbDimension
2
*D1
10
10.871635968
20
-4.999610368
30
0
11
8.996635968
21
-2.499805184
31
0
70
32
71
5
72
0
3
Standard
53
0
210
0
220
0
230
1
100
AcDbAlignedDimension
13
4.932501504
23
0
33
0
14
4.932501504
24
-4.999610368
34
0
50
90
100
AcDbRotatedDimension
0
DIMENSION
5
1FA
100
AcDbEntity
8
0
6
ByLayer
62
256
370
-1
100
AcDbDimension
2
*D2
10
5
20
4.7104
30
0
11
2.5
21
6.5854
31
0
70
32
71
5
3
Standard
53
0
210
0
220
0
230
1
100
AcDbAlignedDimension
13
0
23
0
33
0
14
5
24
0
34
0
100
AcDbRotatedDimension
0
DIMENSION
5
1FB
100
AcDbEntity
8
0
6
ByLayer
62
256
370
-1
100
AcDbDimension
2
*D3
10
20
20
108.3392
30
0
11
10
21
110.2142
31
0
70
32
71
5
3
Standard
53
0
210
0
220
0
230
1
100
AcDbAlignedDimension
13
0
23
120
33
0
14
20
24
120
34
0
100
AcDbRotatedDimension
0
DIMENSION
5
1FC
100
AcDbEntity
8
0
6
ByLayer
62
256
370
-1
100
AcDbDimension
2
*D4
10
5
20
124.928
30
0
11
2.5
21
126.803
31
0
70
32
71
5
3
Standard
53
0
210
0
220
0
230
1
100
AcDbAlignedDimension
13
0
23
130
33
0
14
5
24
130
34
0
100
AcDbRotatedDimension
0
DIMENSION
5
1FD
100
AcDbEntity
8
0
6
ByLayer
62
256
370
-1
100
AcDbDimension
2
*D5
10
24.8832
20
-5
30
0
11
23.0082
21
12.5
31
0
70
32
71
5
72
0
3
Standard
53
0
210
0
220
0
230
1
100
AcDbAlignedDimension
13
20
23
30
33
0
14
20
24
-5
34
0
50
90
100
AcDbRotatedDimension
0
DIMENSION
5
1FE
100
AcDbEntity
8
0
6
ByLayer
62
256
370
-1
100
AcDbDimension
2
*D6
10
25
20
120
30
0
11
23.125
21
75
31
0
70
32
71
5
72
0
3
Standard
53
0
210
0
220
0
230
1
100
AcDbAlignedDimension
13
20
23
30
33
0
14
20
24
120
34
0
50
90
100
AcDbRotatedDimension
0
DIMENSION
5
1FF
100
AcDbEntity
8
0
6
ByLayer
62
256
370
-1
100
AcDbDimension
2
*D7
10
165.894427191
20
-0.447213595525
30
0
11
165.838525492
21
1.6770509831
31
0
70
35
1
%%C<>
71
5
72
0
3
Standard
53
0
210
0
220
0
230
1
100
AcDbDiametricDimension
15
164.105572809
25
0.447213595525
35
0
40
0
0
DIMENSION
5
200
100
AcDbEntity
8
0
6
ByLayer
62
256
370
-1
100
AcDbDimension
2
*D8
10
20
20
37
30
0
11
10
21
38.875
31
0
70
32
71
5
72
0
3
Standard
53
0
210
0
220
0
230
1
100
AcDbAlignedDimension
13
0
23
30
33
0
14
20
24
30
34
0
100
AcDbRotatedDimension
0
DIMENSION
5
201
100
AcDbEntity
8
0
6
ByLayer
62
256
370
-1
100
AcDbDimension
2
*D9
10
78.4809652541
20
12.3328205621
30
0
11
76.7502403615
21
16.3973274629
31
0
70
35
1
%%C<>
71
5
72
0
3
Standard
53
0
210
0
220
0
230
1
100
AcDbDiametricDimension
15
72.5190347459
25
17.6671794379
35
0
40
0
0
DIMENSION
5
202
100
AcDbEntity
8
0
6
ByLayer
62
256
370
-1
100
AcDbDimension
2
*D10
10
3.98010209723e-16
20
21.5
30
0
11
37.5
21
23.375
31
0
70
32
71
5
72
0
3
Standard
53
0
210
0
220
0
230
1
100
AcDbAlignedDimension
13
75
23
15
33
0
14
0
24
15
34
0
100
AcDbRotatedDimension
0
DIMENSION
5
203
100
AcDbEntity
8
0
6
ByLayer
62
256
370
-1
100
AcDbDimension
2
*D11
10
105
20
21.75
30
0
11
90
21
23.625
31
0
70
32
71
5
72
0
3
Standard
53
0
210
0
220
0
230
1
100
AcDbAlignedDimension
13
75
23
15
33
0
14
105
24
15
34
0
100
AcDbRotatedDimension
0
DIMENSION
5
204
100
AcDbEntity
8
0
6
ByLayer
62
256
370
-1
100
AcDbDimension
2
*D12
10
107.334571679
20
18.5544826282
30
0
11
103.833836268
21
15.8599554746
31
0
70
35
1
%%C<>
71
5
72
0
3
Standard
53
0
210
0
220
0
230
1
100
AcDbDiametricDimension
15
103.665428321
25
11.4455173718
35
0
40
0
0
DIMENSION
5
205
100
AcDbEntity
8
0
6
ByLayer
62
256
370
-1
100
AcDbDimension
2
*D13
10
135
20
21.75
30
0
11
120
21
23.625
31
0
70
32
71
5
72
0
3
Standard
53
0
210
0
220
0
230
1
100
AcDbAlignedDimension
13
105
23
15
33
0
14
135
24
15
34
0
100
AcDbRotatedDimension
0
DIMENSION
5
206
100
AcDbEntity
8
0
6
ByLayer
62
256
370
-1
100
AcDbDimension
2
*D14
10
170
20
21.75
30
0
11
152.5
21
23.625
31
0
70
32
71
5
72
0
3
Standard
53
0
210
0
220
0
230
1
100
AcDbAlignedDimension
13
135
23
15
33
0
14
170
24
15
34
0
100
AcDbRotatedDimension
0
DIMENSION
5
207
100
AcDbEntity
8
0
6
ByLayer
62
256
370
-1
100
AcDbDimension
2
*D15
10
132.797101486
20
17.9486165608
30
0
11
136.882164013
21
16.2669836785
31
0
70
35
71
5
72
0
3
Standard
53
0
210
0
220
0
230
1
100
AcDbDiametricDimension
15
138.202898514
25
12.0513834392
35
0
40
0
0
DIMENSION
5
208
100
AcDbEntity
8
0
6
ByLayer
62
256
370
-1
100
AcDbDimension
2
*D16
10
111.035912771
20
59.5500879336
30
0
11
76.4352093933
21
81.6251179621
31
0
70
35
1
%%C<>
71
5
3
Standard
53
0
210
0
220
0
230
1
100
AcDbDiametricDimension
15
39.9640872289
25
100.449912066
35
0
40
0
0
DIMENSION
5
209
100
AcDbEntity
8
0
6
ByLayer
62
256
370
-1
100
AcDbDimension
2
*D17
10
139.16462934
20
108.396724664
30
0
11
136.251535314
21
111.717795003
31
0
70
35
1
%%C<>
71
5
3
Standard
53
0
210
0
220
0
230
1
100
AcDbDiametricDimension
15
131.83537066
25
111.603275336
35
0
40
0
0
DIMENSION
5
20A
100
AcDbEntity
8
0
6
ByLayer
62
256
370
-1
100
AcDbDimension
2
*D18
10
138.754933885
20
47.6750472251
30
0
11
136.589821613
21
51.5257502585
31
0
70
35
71
5
3
Standard
53
0
210
0
220
0
230
1
100
AcDbDiametricDimension
15
132.245066115
25
52.3249527749
35
0
40
0
0
DIMENSION
5
20B
100
AcDbEntity
8
0
6
ByLayer
62
256
370
-1
100
AcDbDimension
2
*D19
10
138.645273355
20
87.5287137922
30
0
11
136.65841541
21
91.4743468853
31
0
70
35
1
%%C<>
71
5
3
Standard
53
0
210
0
220
0
230
1
100
AcDbDiametricDimension
15
132.354726645
25
92.4712862078
35
0
40
0
0
DIMENSION
5
20C
100
AcDbEntity
8
0
6
ByLayer
62
256
370
-1
100
AcDbDimension
2
*D20
10
138.639531062
20
67.5214228457
30
0
11
136.661833041
21
71.4716551854
31
0
70
35
1
%%C<>
71
5
3
Standard
53
0
210
0
220
0
230
1
100
AcDbDiametricDimension
15
132.360468938
25
72.4785771543
35
0
40
0
0
DIMENSION
5
20D
100
AcDbEntity
8
0
6
ByLayer
62
256
370
-1
100
AcDbDimension
2
*D21
10
14.4610049903
20
115.719867492
30
0
11
18.8535359354
21
121.483659378
31
0
70
35
1
%%C<>
71
5
72
0
3
Standard
53
0
210
0
220
0
230
1
100
AcDbDiametricDimension
15
25.5389950097
25
124.280132508
35
0
40
0
0
DIMENSION
5
20E
100
AcDbEntity
8
0
6
ByLayer
62
256
370
-1
100
AcDbDimension
2
*D22
10
165.894427191
20
130.447213595
30
0
11
164.161474509
21
131.677050983
31
0
70
35
1
%%C<>
71
5
72
0
3
Standard
53
0
210
0
220
0
230
1
100
AcDbDiametricDimension
15
164.105572809
25
129.552786405
35
0
40
0
0
DIMENSION
5
20F
100
AcDbEntity
8
0
6
ByLayer
62
256
370
-1
100
AcDbDimension
2
*D23
10
-17.1661376953
20
150
30
0
11
-19.0411376953
21
75
31
0
70
32
71
5
72
0
3
Standard
53
0
210
0
220
0
230
1
100
AcDbAlignedDimension
13
0
23
0
33
0
14
0
24
150
34
0
50
90
100
AcDbRotatedDimension
0
DIMENSION
5
210
100
AcDbEntity
8
0
6
ByLayer
62
256
370
-1
100
AcDbDimension
2
*D24
10
-17.12
20
240
30
0
11
-18.995
21
195
31
0
70
32
71
5
72
0
3
Standard
53
0
210
0
220
0
230
1
100
AcDbAlignedDimension
13
0
23
150
33
0
14
0
24
240
34
0
50
90
100
AcDbRotatedDimension
0
DIMENSION
5
211
100
AcDbEntity
8
0
6
ByLayer
62
256
370
-1
100
AcDbDimension
2
*D25
10
9.44
20
150
30
0
11
7.565
21
140
31
0
70
32
71
5
3
Standard
53
0
210
0
220
0
230
1
100
AcDbAlignedDimension
13
5
23
130
33
0
14
5
24
150
34
0
50
90
100
AcDbRotatedDimension
0
DIMENSION
5
212
100
AcDbEntity
8
0
6
ByLayer
62
256
370
-1
100
AcDbDimension
2
*D26
10
24.96
20
150
30
0
11
23.085
21
135
31
0
70
32
71
5
3
Standard
53
0
210
0
220
0
230
1
100
AcDbAlignedDimension
13
20
23
120
33
0
14
20
24
150
34
0
50
90
100
AcDbRotatedDimension
0
DIMENSION
5
213
100
AcDbEntity
8
0
6
ByLayer
62
256
370
-1
100
AcDbDimension
2
*D27
10
123.45344
20
-5
30
0
11
121.57844
21
37.5
31
0
70
32
71
5
3
Standard
53
0
210
0
220
0
230
1
100
AcDbAlignedDimension
13
75.5
23
80
33
0
14
75.5
24
-5
34
0
50
90
100
AcDbRotatedDimension
0
DIMENSION
5
214
100
AcDbEntity
8
0
6
ByLayer
62
256
370
-1
100
AcDbDimension
2
*D28
10
170
20
125.390625
30
0
11
152.5
21
127.265625
31
0
70
32
71
5
3
Standard
53
0
210
0
220
0
230
1
100
AcDbAlignedDimension
13
135
23
110
33
0
14
170
24
110
34
0
100
AcDbRotatedDimension
0
DIMENSION
5
215
100
AcDbEntity
8
0
6
ByLayer
62
256
370
-1
100
AcDbDimension
2
*D29
10
123.392
20
150
30
0
11
121.517
21
130
31
0
70
32
71
5
72
0
3
Standard
53
0
210
0
220
0
230
1
100
AcDbAlignedDimension
13
135
23
110
33
0
14
135
24
150
34
0
50
90
100
AcDbRotatedDimension
0
DIMENSION
5
216
100
AcDbEntity
8
0
6
ByLayer
62
256
370
-1
100
AcDbDimension
2
*D30
10
123.392
20
90
30
0
11
121.517
21
100
31
0
70
32
71
5
72
0
3
Standard
53
0
210
0
220
0
230
1
100
AcDbAlignedDimension
13
135
23
110
33
0
14
135
24
90
34
0
50
90
100
AcDbRotatedDimension
0
DIMENSION
5
217
100
AcDbEntity
8
0
6
ByLayer
62
256
370
-1
100
AcDbDimension
2
*D31
10
123.392
20
90
30
0
11
121.517
21
85
31
0
70
32
71
5
72
0
3
Standard
53
0
210
0
220
0
230
1
100
AcDbAlignedDimension
13
75.5
23
80
33
0
14
135
24
90
34
0
50
90
100
AcDbRotatedDimension
0
DIMENSION
5
218
100
AcDbEntity
8
0
6
ByLayer
62
256
370
-1
100
AcDbDimension
2
*D32
10
165.761939318
20
180.64764842
30
0
11
163.785659212
21
181.428636221
31
0
70
35
1
%%C<>
71
5
72
0
3
Standard
53
0
210
0
220
0
230
1
100
AcDbDiametricDimension
15
164.238060682
25
179.35235158
35
0
40
0
0
DIMENSION
5
219
100
AcDbEntity
8
0
6
ByLayer
62
256
370
-1
100
AcDbDimension
2
*D33
10
162.72
20
240
30
0
11
160.845
21
237.5
31
0
70
32
71
5
72
0
3
Standard
53
0
210
0
220
0
230
1
100
AcDbAlignedDimension
13
165
23
235
33
0
14
165
24
240
34
0
50
90
100
AcDbRotatedDimension
0
DIMENSION
5
21A
100
AcDbEntity
8
0
6
ByLayer
62
256
370
-1
100
AcDbDimension
2
*D34
10
170
20
228.64
30
0
11
167.5
21
230.515
31
0
70
32
71
5
72
0
3
Standard
53
0
210
0
220
0
230
1
100
AcDbAlignedDimension
13
165
23
235
33
0
14
170
24
235
34
0
100
AcDbRotatedDimension
0
DIMENSION
5
21B
100
AcDbEntity
8
0
6
ByLayer
62
256
370
-1
100
AcDbDimension
2
*D35
10
95.68
20
215
30
0
11
93.805
21
227.5
31
0
70
32
71
5
72
0
3
Standard
53
0
210
0
220
0
230
1
100
AcDbAlignedDimension
13
90
23
240
33
0
14
90
24
215
34
0
50
90
100
AcDbRotatedDimension
0
DIMENSION
5
21C
100
AcDbEntity
8
0
6
ByLayer
62
256
370
-1
100
AcDbDimension
2
*D36
10
90
20
211.2
30
0
11
85
21
213.075
31
0
70
32
71
5
72
0
3
Standard
53
0
210
0
220
0
230
1
100
AcDbAlignedDimension
13
80
23
215
33
0
14
90
24
215
34
0
100
AcDbRotatedDimension
0
DIMENSION
5
21D
100
AcDbEntity
8
0
6
ByLayer
62
256
370
-1
100
AcDbDimension
2
*D37
10
108.7908016
20
214.112396919
30
0
11
108.890496149
21
216.511498
31
0
70
35
1
%%C<>
71
5
72
0
3
Standard
53
0
210
0
220
0
230
1
100
AcDbDiametricDimension
15
111.2091984
25
215.887603081
35
0
40
0
0
DIMENSION
5
21E
100
AcDbEntity
8
0
6
ByLayer
62
256
370
-1
100
AcDbDimension
2
*D38
10
170
20
214.72
30
0
11
160
21
216.595
31
0
70
32
71
5
3
Standard
53
0
210
0
220
0
230
1
100
AcDbAlignedDimension
13
150
23
220
33
0
14
170
24
220
34
0
100
AcDbRotatedDimension
0
DIMENSION
5
21F
100
AcDbEntity
8
0
6
ByLayer
62
256
370
-1
100
AcDbDimension
2
*D39
10
142.56
20
240
30
0
11
140.685
21
230
31
0
70
32
71
5
3
Standard
53
0
210
0
220
0
230
1
100
AcDbAlignedDimension
13
150
23
220
33
0
14
150
24
240
34
0
50
90
100
AcDbRotatedDimension
0
DIMENSION
5
220
100
AcDbEntity
8
0
6
ByLayer
62
256
370
-1
100
AcDbDimension
2
*D40
10
60
20
211.2
30
0
11
70
21
213.075
31
0
70
32
71
5
3
Standard
53
0
210
0
220
0
230
1
100
AcDbAlignedDimension
13
80
23
215
33
0
14
60
24
215
34
0
100
AcDbRotatedDimension
0
DIMENSION
5
221
100
AcDbEntity
8
0
6
ByLayer
62
256
370
-1
100
AcDbDimension
2
*D41
10
54.56
20
240
30
0
11
52.685
21
227.5
31
0
70
32
71
5
3
Standard
53
0
210
0
220
0
230
1
100
AcDbAlignedDimension
13
60
23
215
33
0
14
60
24
240
34
0
50
90
100
AcDbRotatedDimension
0
DIMENSION
5
222
100
AcDbEntity
8
0
6
ByLayer
62
256
370
-1
100
AcDbDimension
2
*D42
10
59.0408469866
20
213.846732686
30
0
11
58.5584158578
21
216.198941267
31
0
70
35
1
%%C<>
71
5
3
Standard
53
0
210
0
220
0
230
1
100
AcDbDiametricDimension
15
60.9591530134
25
216.153267314
35
0
40
0
0
DIMENSION
5
223
100
AcDbEntity
8
0
6
ByLayer
62
256
370
-1
100
AcDbDimension
2
*D43
10
148.050656552
20
217.719635967
30
0
11
148.574772479
21
221.218339655
31
0
70
35
1
%%C<>
71
5
3
Standard
53
0
210
0
220
0
230
1
100
AcDbDiametricDimension
15
151.949343448
25
222.280364033
35
0
40
0
0
DIMENSION
5
224
100
AcDbEntity
8
0
6
ByLayer
62
256
370
-1
100
AcDbDimension
2
*D44
10
4.31237015916
20
179.273938569
30
0
11
3.63863481636
21
181.289305952
31
0
70
35
1
%%C<>
71
5
3
Standard
53
0
210
0
220
0
230
1
100
AcDbDiametricDimension
15
5.68762984084
25
180.726061431
35
0
40
0
0
DIMENSION
5
225
100
AcDbEntity
8
0
6
ByLayer
62
256
370
-1
100
AcDbDimension
2
*D45
10
164.603495559
20
234.081967196
30
0
11
163.278688493
21
235.743445826
31
0
70
35
1
%%C<>
71
5
3
Standard
53
0
210
0
220
0
230
1
100
AcDbDiametricDimension
15
165.396504441
25
235.918032804
35
0
40
0
0
DIMENSION
5
226
100
AcDbEntity
8
0
6
ByLayer
62
256
370
-1
100
AcDbDimension
2
*D46
10
-2.81668763801e-16
20
230.4
30
0
11
2.5
21
232.275
31
0
70
32
71
5
3
Standard
53
0
210
0
220
0
230
1
100
AcDbAlignedDimension
13
5
23
235
33
0
14
0
24
235
34
0
100
AcDbRotatedDimension
0
DIMENSION
5
227
100
AcDbEntity
8
0
6
ByLayer
62
256
370
-1
100
AcDbDimension
2
*D47
10
11.0592
20
240
30
0
11
9.1842
21
237.5
31
0
70
32
71
5
3
Standard
53
0
210
0
220
0
230
1
100
AcDbAlignedDimension
13
5
23
235
33
0
14
5
24
240
34
0
50
90
100
AcDbRotatedDimension
0
DIMENSION
5
228
100
AcDbEntity
8
0
6
ByLayer
62
256
370
-1
100
AcDbDimension
2
*D48
10
-1.62265700887e-15
20
53.5
30
0
11
37.75
21
55.375
31
0
70
32
71
5
3
Standard
53
0
210
0
220
0
230
1
100
AcDbAlignedDimension
13
75.5
23
80
33
0
14
0
24
80
34
0
100
AcDbRotatedDimension
0
ENDSEC
0
SECTION
2
OBJECTS
0
DICTIONARY
5
C
330
0
100
AcDbDictionary
281
1
3
ACAD_GROUP
350
D
0
DICTIONARY
5
D
330
C
100
AcDbDictionary
281
1
0
ENDSEC
0
EOF
